<?xml version="1.0" encoding="utf-8"?>
<!-- Generator: Adobe Illustrator 22.1.0, SVG Export Plug-In . SVG Version: 6.00 Build 0)  -->
<svg version="1.1" id="Capa_1" xmlns="http://www.w3.org/2000/svg" xmlns:xlink="http://www.w3.org/1999/xlink" x="0px" y="0px"
	 viewBox="0 0 841.9 595.3" style="enable-background:new 0 0 841.9 595.3;" xml:space="preserve">
<style type="text/css">
	.st0{fill:blue;}
	.st1{fill:pink;}
</style>
<path class="st0" d="M39.3,314.2l5.9-0.2l4.4-8.1c0,0-11.6-11.2-24.1-18s-17.9,4.7-17.9,4.7s-5.8,4.4-7.6-2.4
	c1.5-19.4,31.8-6.8,31.8-6.8s-13.5-25.3-11.6-44.7c1.9-19.4,21.2-12.3,21.2-12.3s19.9-47.8,56.3-22.1c0.6-0.9,0.9-0.5,0.8-1.8
	c-19.7-20.8-15.1-81.4,23.8-56l2.2,1.3c0,0,20.5-12.7,45.4,6.1c21-4.2,32.4-7.7,32.4-7.7"/>
<polyline class="st0" points="42.7,322.9 46.7,318.2 52,319.2 87.8,339 87.9,344.7 "/>
<polyline class="st0" points="95.1,358.5 101.9,355.2 109.6,369.4 "/>
<line class="st0" x1="121" y1="379.7" x2="134.7" y2="390"/>
<line class="st0" x1="147.6" y1="397" x2="164.9" y2="405.8"/>
<line class="st0" x1="176.5" y1="413.3" x2="191.1" y2="419.9"/>
<line class="st0" x1="205.9" y1="425.3" x2="219.5" y2="428.1"/>
<line class="st0" x1="233.8" y1="429.8" x2="254.2" y2="426.7"/>
<line class="st0" x1="265.5" y1="426.2" x2="283" y2="421.9"/>
<path class="st0" d="M295.7,416.5l20.3-18.3c0,0,44.1,8.7,72.7-21.9c18.3,4.7,19.1,8.6,19.1,8.6l7.9,22.8l1.2,3.4"/>
<line class="st0" x1="216.7" y1="146.6" x2="227.4" y2="148.8"/>
<line class="st0" x1="240.4" y1="156.4" x2="247.6" y2="162.1"/>
<line class="st0" x1="258" y1="173.9" x2="263.3" y2="178.2"/>
<path class="st0" d="M275.4,178c0,0,15.7-18.2,16.2-0.3c0,0,24.2-13.8,42.8,17.9c8.5,14.5,13.2,20.7,15.8,23.2"/>
<line class="st0" x1="361.9" y1="230.7" x2="371.2" y2="240.2"/>
<path class="st0" d="M387.9,245.2l7.8-13.1l-3.2-24.7l2.7-4.5c0,0,14.9-3.9,21-37.3l0-2.2"/>
<path class="st0" d="M416.4,360.4c0.8,1.3-1.1,14.1-1.1,14.1s-10.2,10.3-15.2-1.1C402.6,360.2,415.7,359.1,416.4,360.4z"/>
<path class="st0" d="M400.4,360.7c0.8,1.6-1.1,6.3-1.1,6.3s-1.9,5.8-3.2,5.8c-1.3,0-3.2-2.8-3.2-2.8s-1.1-1.5-1.1-3.1
	c0-1.5,4.3-6.1,4.3-6.1S399.6,359.1,400.4,360.7z"/>
<path class="st0" d="M416.1,343.2c0.2,0.6,1.1,2.4,1,3.4s-2.6,3.8-2.6,3.8s-2.6-1.3-3.3-1.2c-0.8,0.1-0.1-3-0.1-3l1.3-3
	C412.5,343.3,415.9,342.7,416.1,343.2z"/>
<path class="st0" d="M416.9,336.4c0,0,0.7,4.6,0.1,5.1s-2.1,0-2.1,0s-4.3-1.8-6.6-1c-2.3,0.8-2.2,8.7-2.7,10.1
	c-0.5,1.4-14.4-3.7-10.1-10.8c0,0,5.7-11.2,14.5-2.1C413.9,332.9,416.9,336.4,416.9,336.4z"/>
<path class="st0" d="M414.6,326.4c0,0.9,0.8,6.5-0.8,6.5s-3.9-4-3.9-5.4s0.9-3.4,2.3-3.4S414.6,325.5,414.6,326.4z"/>
<path class="st0" d="M413.5,314.3c1.3,1,0.2,8,0.2,8s-4.7-1.1-6.2,0.1c-1.5,1.2-11.3,10.9-13,10.9c-1.7,0-15.6-9.3-15.6-11.2
	c0-1.9,1.4-3,1.4-3s16.9-6,19.2-6s3,2.4,4.7,3C406,316.7,412.2,313.3,413.5,314.3z"/>
<path class="st0" d="M409.6,305.5c0,0,1.8,2.1,0.9,3.2c-1,1.1-4.4,0.1-4.4,0.1s-1.7-1-0.9-2.6C406,304.5,409.6,305.5,409.6,305.5z"
	/>
<path class="st0" d="M406.9,296.8c0,0,0.8,3.8,0.1,5c-0.7,1.2-4.9,1.2-4.9,1.2s-2.6,5.6-3.2,5.9c-0.6,0.3-10,2.3-11.6,2.3
	c-1.6,0-3.7-11.2-3.7-12.5s8.1-3.8,10.1-4c1.9-0.1,5.1,4.7,6.3,4.3S406.9,296.8,406.9,296.8z"/>
<path class="st0" d="M399.9,286.5c0.7,0.3,1.3,3.1,1.3,3.1l-1.2,1.5c0,0-2.1,0.9-3.3,1.2c-1.2,0.3-1-1.8-1-1.8
	S399.1,286.2,399.9,286.5z"/>
<path class="st0" d="M398.3,283.6c0,1.4-4.8,0.9-4.8,0.9l-4.4,8c0,0-5.8,3.6-7.2,3.6c-1.4,0-4.3-2.2-4.9-3.3
	c-0.5-1.1,0.6-2.2-0.1-3.6c-0.7-1.5-4.7-0.4-3.8-2c0.9-1.6,2.9-5.1,2.9-5.1s2.3-4.1,3.5-4.3c1.1-0.2,8.9,4.2,8.9,4.2s6-2.7,7.7-2.1
	C397.8,280.3,398.3,282.1,398.3,283.6z"/>
<path class="st0" d="M386.5,256.4c0,1.7,8.8,13.9,10.6,13.9s1.8-11.2,1.8-12s-4-2.8-4-2.8S386.5,254.7,386.5,256.4z"/>
<path class="st0" d="M380.8,260.6c0.9-0.9,3.6,1.8,3.6,1.8l0.1,3.3c0,0-3.6,9.7-5.2,9.7c-1.5,0-4.7-2.9-4.7-2.9s-1.1-2.5-1.1-4.4
	c0-1.8,6.2-3.9,6.2-3.9S379.9,261.6,380.8,260.6z"/>
<path class="st0" d="M361.6,257.5c1.3,0.3,0.4,7.7,1.4,8.3c1,0.6,7.6,4.5,7.6,4.5l1.3,8.4c0,0-2.1,6.2-3.4,6.6
	c-1.3,0.4-11.6-3.7-12.4-3.2s-2.6-12.7-2.3-13.7c0.3-1,0.4,0.4,1.9,0c1.5-0.5,2.6-5.5,2.6-5.5s-0.2-3-0.6-3.9
	C357.3,258.3,360.4,257.2,361.6,257.5z"/>
<path class="st0" d="M366.4,257.4c-1.1,0-1.1,2.7-1.1,2.7s2.6,3.4,3.4,3.4s1.9-0.2,2-2S367.5,257.4,366.4,257.4z"/>
<path class="st0" d="M352,259.2c0,1.2-3.5,3.3-3.2,4.6c0.2,1.3,2.5,2.2,2.3,3.6c-0.2,1.4-5.1-1.6-5.9-1.9s-2-3.8-2.5-5.2
	C342.3,258.9,352,258,352,259.2z"/>
<path class="st0" d="M354,250.4l3-0.9c0,0,1.3-3.2,0.4-3.8c-0.9-0.6-5.8-0.3-5.6,1.7S354,250.4,354,250.4z"/>
<path class="st0" d="M353.4,243c0,0,8.8-0.9,8.9-1.9s0.4-5.5-0.7-5.6c-1.2-0.1-3,3.1-3,3.1l-5.3-3c0,0-7.7,2.3-7.2,3.8
	S353.4,243,353.4,243z"/>
<path class="st0" d="M348.4,244.5l0.1,3c0,0-0.1,3-1.3,2.5c-1.2-0.5-2.6-0.9-2.6-0.9l0-2.6c0,0,0.3-2.7,1.5-2.8
	C347.4,243.6,348.4,244.5,348.4,244.5z"/>
<path class="st0" d="M351.8,228.5c0,0-2.8,4.6-3.6,4.8c-0.8,0.2-8.2,0.2-8.2,0.2s-7.6-3.2-8.6-4.5c-1-1.3-4.5-11.7-4.5-12.6
	s5.4-13.3,6.9-12.7c1.5,0.6,11.1,23.2,12.3,23.3c1.2,0,4-1.6,4-1.6"/>
<path class="st0" d="M323.2,216.4c0.9,0.8,2.8,11.6,2.8,11.6l-4,6.8l-9.4,0.2c0,0-4.1-0.7-4.1-1.7s2.1-4.6,2.1-4.6l6.6-2.2
	c0,0,2.8-3.2,2.4-4.7s-2.3-2.3-2.6-4.1C316.7,215.9,322.3,215.7,323.2,216.4z"/>
<path class="st0" d="M323.7,239.9c0,0,0.2,4.9,1.7,5.7s2.4,0.4,2.9,0.7c0.5,0.4,7.3-0.3,7.6-0.9s4.5-8.5,4.5-9.4s-8.7-4.3-9.9-3.9
	c-1.2,0.5-6.2,5.1-6.2,5.1L323.7,239.9z"/>
<path class="st0" d="M320,240c0.9,1,1.4,7.3,1.4,7.3s-0.7,2.2-2.1,2.2c-1.4,0-5.6-3.5-5.6-3.5s-3.4-7.3-3.4-8.3S319.1,239,320,240z"
	/>
<polygon class="st0" points="335.3,260.2 327.9,270.1 324.8,268 324.1,264.3 325.2,261.7 "/>
<path class="st0" d="M302.3,223.4c0.8,0.7-2.9,3.8-3,5.2c-0.1,1.3,3.5,8.6,1.7,8.1c-1.8-0.5-5.7-12.4-5.7-12.4
	S301.6,222.7,302.3,223.4z"/>
<path class="st0" d="M303.4,219.2c0,0,7-3.5,7-4.8c0-1.3-5.6-8.3-5.6-8.3l-3.5-1.8c0,0-5.6-0.9-7-0.4c-1.4,0.4-1.4,6.9-1.4,6.9
	l1,6.8l2.7,1.8L303.4,219.2z"/>
<path class="st0" d="M299.2,198.5c-1.2,0.4,0.7,2.7,0.7,2.7s2.3,2.4,3.5,2.4s1.1-0.9,1.1-0.9l-1.3-2.9
	C303.3,199.8,300.5,198.1,299.2,198.5z"/>
<path class="st0" d="M287.9,193.7c0,0,11.3-6.9,11.1-8.2s-0.5-4.9-2-4.9c-1.6,0-8.5,6.6-8.5,6.6s-2.8,2.7-2.8,4.8
	C285.7,194.3,287.9,193.7,287.9,193.7z"/>
<path class="st0" d="M286.4,198.8l-1.4,5.8c0,0-1.8,4.2-2.8,4.7s-0.7-7.9-0.7-7.9s2.3-4.7,3.2-4.6
	C285.7,196.9,286.4,198.8,286.4,198.8z"/>
<path class="st0" d="M273.7,191.3c0,0,1.8,8.6,2.2,9.3s0,2-1,2c-0.9,0-2.3-1.2-2.5-1.8s-2.8-8.3-2.8-8.3"/>
<path class="st0" d="M272.9,209.5c1.4,0.8,3.7,8.2,3.2,8.6c-0.5,0.4-4.2-2.8-5.6-4.2s-1.7-4.3-1.7-4.3S271.5,208.7,272.9,209.5z"/>
<path class="st0" d="M265.5,195.3c1.5,0.6,2.8,7.3,2.8,7.3s-0.1,3-1.9,2.3c-1.8-0.7-6.2-8.7-6.2-8.7S264,194.7,265.5,195.3z"/>
<path class="st0" d="M260,188.4l-3.4-8.5c0,0-3.2-2.5-5.4-3.1c-2.2-0.6-4.2,2.8-4.2,2.8s-1.8,2.7-1.2,4.8c0.6,2,10,7,11.7,7.2
	S260,188.4,260,188.4z"/>
<path class="st0" d="M243.8,178.6c0,0,4.1-3.2,4.1-4.5s-4.3-7.3-4.3-7.3s-7.3-4.1-8.8-4.3s-5.6,7.8-5.6,7.8l1.8,5.2l7,4.2
	L243.8,178.6z"/>
<path class="st0" d="M225.1,158c0,0,2.8,2.6,3.9,2.6s1.1-1.3,1.1-1.3s-3.5-2.3-4.3-2.5C225.1,156.4,225.1,158,225.1,158z"/>
<polygon class="st0" points="218.4,158.8 226.4,163.7 227.2,171.8 224.7,176.4 216.7,175.8 210.1,164.2 213.7,157.6 "/>
<path class="st0" d="M215.4,155.4c0,0,2.1,1.2,4.1,1.5c2,0.3,0-1.5,0-1.5s-1.2-0.7-2.7-1.3C215.4,153.3,215.4,155.4,215.4,155.4z"/>
<path class="st0" d="M208.6,158.3c2.4,0.9-2.7,5.4-2.7,5.4l-8.1,2.3c0,0-3.9-0.5-5-2.4c-1-1.9,3-2.5,3-2.5S206.2,157.4,208.6,158.3z
	"/>
<path class="st0" d="M203.6,154.2c-1.4-0.5-2.8,2.2-2.1,2.9c0.7,0.8,1.1-0.1,2.9-0.1c1.9,0,1.5-0.9,1.6-2.1
	C206,153.8,205,154.7,203.6,154.2z"/>
<path class="st0" d="M195.4,159.3c0.8,1.3,3-0.1,3-0.1s1.4-1.2,1.4-2.5s-2.2-0.9-2.2-0.9S194.6,157.9,195.4,159.3z"/>
<path class="st0" d="M174.1,159c1.2,1.6,4.3,1.5,4.3,1.5s5.5-2.8,5.2-4c-0.3-1.2-4.8-1.2-4.8-1.2l-3.3,1.3
	C175.5,156.7,172.9,157.4,174.1,159z"/>
<path class="st0" d="M207.5,167.7c1.1,0.4,5.9,8.5,6.5,10.5s-2.7,7.7-4.1,8.6c-1.3,0.9-6.5,0.1-7.8,0.1c-1.4,0-2.8-2.2-2.8-2.2
	l-3.6-7.5c0,0-0.6-5.6,0.8-7.6C197.9,167.7,206.4,167.3,207.5,167.7z"/>
<path class="st0" d="M220.1,186c1.5,1,9.7,0.1,8.9-1.3c-0.8-1.4-3.4-2.2-3.4-2.2l-4.3,0.7C221.3,183.1,218.6,185,220.1,186z"/>
<path class="st0" d="M233.8,181.8c0,0-3.1,5-3.1,6.5s10.4,5.3,10.4,5.3s4.8-2.5,4.8-3.6c0-1.2-3.7-4.5-3.7-4.5l-5-2.6L233.8,181.8z"
	/>
<path class="st0" d="M246.5,192.3c0,0-2.3,2.2-2.3,3.4c0,1.2,12.7,7.2,13.2,7.9c0.4,0.7,2.7,6.5,3.9,6.1c1.2-0.4-1.7-8.8-1.7-8.8
	l-5.2-4.9L246.5,192.3z"/>
<path class="st0" d="M183.5,179.7c-2.3-0.1,3.4,22.5,6.4,22.5c2.9,0,8.3-12.4,8.3-12.4s-0.1-5-1.7-5.8
	C195,183.3,185.9,179.9,183.5,179.7z"/>
<path class="st0" d="M159.6,169.2c2.4-0.1,9.9,5.6,11,6.3s2.2,15.5,0.3,15.8c-1.9,0.3-6.9-5.8-9.1-5.9c-2.2-0.1-6.7,4.4-8.8,3.2
	c-2.1-1.2,1.9-10.6,1.9-10.6S157.2,169.3,159.6,169.2z"/>
<path class="st0" d="M164,160.8c0,1.8-23.6,4.1-25.6,4.1s-4.6-9.9-3.8-11.7c0.9-1.8,13.3-1.8,14.6-1.8
	C150.5,151.4,164,159,164,160.8z"/>
<path class="st0" d="M130.1,159.2c0,0,5.3,6.2-1.2,13.5c0,0-1.1,8.3-4.4,7c-3.3-1.2-13.3-5.6-14.3-7.5c-1-1.9,6.6-10.5,6.6-10.5
	S123.8,154.6,130.1,159.2z"/>
<path class="st0" d="M108,153.8c2.1,0.4,2.4,4.2,2.4,4.2s-6.2,11.2-7.1,11.8c-0.8,0.6-8.8-3.3-8.8-5.4s4.6-8.1,4.6-8.1
	S105.9,153.4,108,153.8z"/>
<path class="st0" d="M100.3,175.3l0.9,6.7c0,0-1.1,6.3-2,6.3c-1,0-4-10.1-4-10.1s1.5-3.7,2.9-4.3
	C99.5,173.3,100.3,175.3,100.3,175.3z"/>
<path class="st0" d="M113.6,178.5c1.9,0,4.7,2.2,5.6,3.9s0.2,8.7,0.2,8.7s-0.7,3.2-1.7,4.3c-1,1.1-7.7,1.1-7.7,1.1s-3.3-1-4.4-1.9
	c-1.1-0.9-1.1-2.6-1.1-4.4s6.4-11,6.4-11S111.7,178.5,113.6,178.5z"/>
<path class="st0" d="M130.1,191.2c0,0,1.5,22.8,7.5,26.6c3.2,2.8-2.6,7.4-5.4,5C132.2,222.8,119.6,201.6,130.1,191.2z"/>
<path class="st0" d="M136.8,178c0,0,1.6,19,10.4,25c-2.2,4-7.7,4.1-7.7,4.1S128.6,188.3,136.8,178z"/>
<path class="st0" d="M143.5,182.2c0,0,4.6,2.9,5-0.7s-1.3-7.3,3.5-12.2C150.3,168,141.4,172.9,143.5,182.2z"/>
<path class="st0" d="M117.9,200.6c1.7,0,1.9,21.6,6.5,23.7c-0.4,2-1.4,2-1.4,2s-17.6-20.5-16.4-23.1
	C107.7,200.6,116.2,200.6,117.9,200.6z"/>
<path class="st0" d="M109.8,221.2c4.4,0.4,7.9,5.8,7.9,5.8l7,11.5c0,0-1.4,5.9-3.7,6.8C118.6,246.1,105.4,232.4,109.8,221.2z"/>
<path class="st0" d="M129.4,238.8c1.6,0,4.7,3.2,4.7,3.2s1.9,3.2,1.3,4.9s-5.5,6.5-6.6,6.5c-1.1,0-5.3-4.2-5.6-5.4
	C123,246.9,127.9,238.8,129.4,238.8z"/>
<path class="st0" d="M145.8,251.4c0,0,5,5,5,6.5c0,1.5-2.3,7-4,7.6c-1.7,0.6-6.7-1.7-6.7-1.7s-10-7.7-9.2-9.1s9.8-4.1,9.8-4.1
	L145.8,251.4z"/>
<path class="st0" d="M154.2,259.5c-1.4,0-4.7,7-4.1,8.6c0.6,1.6,6.6,4.4,8.6,4.4s4.5-6,4.5-7.7C163.3,263.1,155.6,259.5,154.2,259.5
	z"/>
<path class="st0" d="M168.4,267l-3.5,1.7c0,0-2.7,2.3-2.7,4.5s1.2,2.3,1.2,2.3s-0.5-1.1,1.4-1.3s8.7,1.5,9.6-0.3
	c0.9-1.8-0.5-2.3-1-3.9C173,268.4,168.4,267,168.4,267z"/>
<path class="st0" d="M136.4,228.5l1.4,6.7c0,0,10.9,7.9,12.7,7.9s3.3-6.1,3.3-6.1s-9.7-10.8-11.9-11.5S136.4,228.5,136.4,228.5z"/>
<path class="st0" d="M155.7,243.7l0.8,6.7c0,0,9.7,6.5,11.6,6.6s5.9-5.6,5.4-7.6c-0.5-2.1-13.9-9.3-15.6-9.3
	C156.2,240.1,155.7,243.7,155.7,243.7z"/>
<path class="st0" d="M180,250.9c-2.5,0-5,7.8-4.8,9.4c0.2,1.6,12,5.7,12,5.7l5.8-0.1c0,0,1.9-7.9,2.3-8.8c0.4-0.8-6.2-2.2-6.2-2.2
	S182.5,250.9,180,250.9z"/>
<path class="st0" d="M199.5,260c0,0-2.4,7.2-1.4,8.5c1,1.3,16.2,0.5,17.1-0.3s-2-5.6-2-5.6l-4.4-2.1L199.5,260z"/>
<polygon class="st0" points="219.1,268 237.1,267.7 234,263.5 219.8,262.4 "/>
<path class="st0" d="M243.6,264.8c-0.6,1.1,0.1,4.2,0.1,4.2s15.9,1.8,15.4,1.2c-0.4-0.6-6.5-5.5-6.5-5.5S244.2,263.7,243.6,264.8z"
	/>
<path class="st0" d="M265.5,264.5c-1.2,0.1-3.1,6.2-3.1,6.2s20.9,5,22.2,4c1.3-1,0.7-3.9,0.7-3.9l-2.5-3.4l-4-1.3
	C278.7,266.2,266.7,264.5,265.5,264.5z"/>
<path class="st0" d="M292,269.5c-1,0-3.7,2.9-3.7,2.9l-0.5,3.2c0,0,15.6,4.7,17.2,4.7s1.6-4.3,1.6-4.3S293,269.5,292,269.5z"/>
<path class="st0" d="M311.1,279.3c-0.8,1,1.3,4.1,1.3,4.1s18.1,11.1,18.6,10c0.5-1.1-2.8-6.8-2.8-6.8l-11.2-6.5
	C317,280.1,311.9,278.3,311.1,279.3z"/>
<path class="st0" d="M314.2,271.4c-1.4,1.3,9.4,7.1,10.2,6.1c0.8-1-2.5-6.5-3-7.2S315.6,270.1,314.2,271.4z"/>
<path class="st0" d="M313.9,257.8c0.1,0.9,3.8,5.6,5.1,5.5c1.3-0.1-0.4-3.3-0.1-5C319.3,256.7,313.8,256.9,313.9,257.8z"/>
<path class="st0" d="M302.1,263.8c0.3,1.4,2,5.7,3.3,5.9c1.3,0.2,13.7-0.8,13.7-2.7s-8.6-5-8.6-5S301.8,262.4,302.1,263.8z"/>
<path class="st0" d="M302.4,252.6c-0.8,1.5,0.1,6.5,1.4,7c1.2,0.5,7.4-0.9,7.4-2.4C311.2,255.7,303.2,251.1,302.4,252.6z"/>
<path class="st0" d="M299,252.7c0.7,0.4,1.2,5.3,1.2,5.3s-1.3,4.9-2.5,4.8s-4.3,0.7-5.6,0.1c-1.3-0.6-1.2-9-0.2-9.8
	C293,252.3,298.3,252.3,299,252.7z"/>
<path class="st0" d="M291.9,250.3c-0.4,0.7-2.5,0.7-2.5,0.7s-2.8,4.6-4.4,4.6c-1.6,0-1-3.7-1-3.7l3.3-4.8l3.1-0.9
	C290.3,246.3,292.3,249.7,291.9,250.3z"/>
<path class="st0" d="M280.4,253.5l2.1,4.2c0,0,4.1,0.2,4.5,2.3c0.4,2.1-0.1,3-1.9,3.1s-6.8-2.7-7.1-4c-0.3-1.3,1.3-4,0.5-5
	c-0.8-1-2.4,2.3-3,1.8c-0.6-0.5-0.1-4.7-0.1-4.7s3.3-1.8,4.3-1C280.7,251,280.4,253.5,280.4,253.5z"/>
<path class="st0" d="M269.1,247.5l2.8,8.5l2.4,2.3c0,0,0.1,2.1-1,2s-6.2-3.3-6.2-3.3s-4.4-11.3-4.1-12.9c0.2-1.7,3.9-0.1,3.9-0.1
	L269.1,247.5z"/>
<path class="st0" d="M270.8,242.9c-0.5,0.9,1.8,4.3,2.7,5.4s8.9-1.3,8.9-2.9s-3.7-3.5-5.2-4C275.6,240.9,271.3,242,270.8,242.9z"/>
<path class="st0" d="M280.9,240.2c0,2,5.6,3.5,6.3,3.4c0.7-0.1-0.4-3.3-1.1-4.3C285.4,238.2,280.9,238.2,280.9,240.2z"/>
<path class="st0" d="M260.5,245.3c0,0-1.6,2.9-3.8,2.4c-2.3-0.4-0.6-1-1.5-1.2s-0.9,0.6-1.6,2c-0.7,1.4,2.2,3.4,4.2,3.8
	c2,0.4,2.1-2.6,2.1-2.6s5.1,5.4,3.3,7.2c-1.7,1.8-5.8,1.8-5.8,1.8l-6.4-3.9c0,0-1.4-3.9-1.4-5.4s3.8-7.7,3.8-7.7s3.7-2.4,5-2
	s2.6,3.4,2.6,3.4L260.5,245.3z"/>
<path class="st0" d="M246.8,250.9c0,0,2.3,5.8,1.3,7.4c-1,1.6-6.9-0.8-6.9-0.8l-4.4-1.7c0,0,0-1.4,0-2.5
	C236.9,252.1,243.9,248.3,246.8,250.9z"/>
<path class="st0" d="M242.3,246.1c0,0,6.2-1,6.2-2.5c0-1.5-3.5-2.2-3.5-2.2l-4,0.6c0,0-2.5,0.8-2,2.4
	C239.6,246.1,242.3,246.1,242.3,246.1z"/>
<path class="st0" d="M268,241c0.8-1,10.1-3.4,10.1-3.4s1-0.8,1-2c0-1.1-1.9-1.6-1.9-1.6s-3.9-2.8-5-3.4s-10.5,2.8-10.5,2.8
	s-3.2-1-3.4-1.8c-0.1-0.8,0.8-2.3,2-3.5c1.2-1.1,5.5-0.2,5.7-1.4c0.2-1.2-2.7-2.5-2.7-2.5l-5.1,2.7c0,0-3.8,4.6-3.3,5.9
	c0.5,1.3,2.2,2.2,2.2,2.2l3.9,4.7L268,241z"/>
<path class="st0" d="M252.6,238.8l1.8-3.7c0,0-3-9.6-4.3-10.6c-1.4-1-4.1,2.6-4.1,2.6l-3,5.9l0.7,4.3l4.1,2.7L252.6,238.8z"/>
<polygon class="st0" points="239,237.9 239.6,236.4 236.5,234.5 235.5,236.9 "/>
<path class="st0" d="M260.7,224.2l1.9-0.5c0,0,2.4-3.1,2-3.8c-0.4-0.7-3.2-1.5-3.2-1.5l-3.3,0.5c0,0-2,2.1-1.8,3.2
	S260.7,224.2,260.7,224.2z"/>
<path class="st0" d="M252,222c0,0,6.8-5,7.6-6s-0.9-2.9-0.9-2.9l-4.2-3.2l-2.7,2c0,0-2.7,4.1-2.7,5.5S252,222,252,222z"/>
<path class="st0" d="M246.5,222.1c1.3,0,1.1-9.6,1.1-9.6s3.7-5,3.7-6.2c0-1.2-6.4-5.1-6.4-5.1l-5.1,2c0,0-3.4,2.6-2.9,4.3
	c0.6,1.7,6.3,12.3,6.3,12.3S245.2,222.1,246.5,222.1z"/>
<polygon class="st0" points="241.5,225.4 238,218.8 237.2,218.1 232.8,218.9 230.8,221.9 234.6,231.3 239.6,229.9 "/>
<path class="st0" d="M223.3,220.7c1.2,1.4,10.7-6.1,10.7-6.1l0-1.8c0,0-0.8-1.9-2.3-2.5c-1.5-0.5-6.6,4.5-6.6,4.5
	S222.2,219.3,223.3,220.7z"/>
<path class="st0" d="M232.9,208.6c1.9,0.4,4-2.6,3-5.3s-4.6,3.1-4.9,1.8s2.6-3.4,2.4-5.3c-0.3-1.9-3-0.9-3-0.9s-1.6,3.5-1.9,5.2
	S231,208.2,232.9,208.6z"/>
<path class="st0" d="M219.1,190.4c0,0-1,3.9,0.1,4.6c1.1,0.8,5.5-1.8,5.5-1.8s1.4-3.3-0.1-4.2C223.1,188.2,219.1,190.4,219.1,190.4z
	"/>
<path class="st0" d="M216.4,190.4c0,0,2.6,3.2,1.3,4.6s-8.2,2.2-8.2,2.2l-6.1,10.2c0,0-7.4,0.4-7.8-1.1c-0.4-1.5,4.3-8.1,4.3-8.1
	s9.5-3.8,10.7-4.7c1.2-0.9,0-1.3,0-1.3s0.6-4,1.7-4C213.5,188.2,216.4,190.4,216.4,190.4z"/>
<path class="st0" d="M217,205.9c-1.6,1.8,1,2.9,1,2.9s2.6,2.6,4.3,2.7s4-2.8,4-2.8s0.9-3.3-0.1-4.8
	C225.1,202.2,218.6,204.1,217,205.9z"/>
<path class="st0" d="M219.5,215.7c1.1-0.1,0.7,5.7,0.1,6.4c-0.6,0.7-3.9-0.8-3.9-0.8s-0.8,0-1.1-1.5
	C214.5,218.4,218.4,215.7,219.5,215.7z"/>
<path class="st0" d="M211.7,215.8c1.4,0.5,4.1-0.8,4.4-2.1c0.4-1.3-1.5-3.1-1.5-3.1s-1.5-1.7-3-1.7c-1.5,0-4.6,2.3-4,3.4
	C208.1,213.5,210.3,215.3,211.7,215.8z"/>
<path class="st0" d="M210.7,221c1.1,0.3,4.2,3.1,4.2,3.1s1.3,0,0.6,2c-0.7,2.1-3.3,1-3.3,1s-5.8-1-5.8-2.3S209.5,220.7,210.7,221z"
	/>
<path class="st0" d="M204.3,250.4l5.4,2.9l2.1,0l2.5,1.1c0,0,0.9,1.7-0.8,1.8c-1.7,0.2-10.8-1.8-10.8-1.8l-4.5-2.2
	c0,0-7.1-10.4-7.4-11.6c-0.3-1.2,0.9-5.3,5.5-1.1C199.2,245.3,204.3,250.4,204.3,250.4z"/>
<polygon class="st0" points="206,234.5 208.9,240.2 219.3,246.6 222.3,244.4 222.3,243.3 219.5,238.3 215.1,236.2 "/>
<path class="st0" d="M199.2,219.6c1.3,0,1.3-5.7,1.3-5.7s-3.6-3.2-5.2-3.7C193.7,209.7,198,219.6,199.2,219.6z"/>
<path class="st0" d="M186.2,209.5c-0.9-0.1,1.2,5.6,1.2,5.6s0,1.2-1.8,1.2s-2.4-5.9-2.4-5.9l1-2
	C184.3,208.4,187.1,209.5,186.2,209.5z"/>
<path class="st0" d="M188.9,221.4l2.8,8.6c0,0,0.5,6.4-1.2,6.3c-1.7-0.1-6-13.8-6-13.8s-0.4-3.3,0.9-3.4
	C186.8,218.9,188.9,221.4,188.9,221.4z"/>
<path class="st0" d="M180.4,206.4l0.3,16.9l-1.1,3.2c0,0-3.7,0.9-4.5,0.8c-0.8-0.2-0.8-13.1-0.8-13.1s2.3-9.5,3.8-9.5
	C179.6,204.8,180.4,206.4,180.4,206.4z"/>
<path class="st0" d="M188,244.8c0,0,1.5,0.7,2.2,1.6c0.7,0.9-2.1,3.3-2.1,3.3s-2.1,0.3-2.1-1.7C186,246.1,188,244.8,188,244.8z"/>
<path class="st0" d="M182.2,233.5l1.6,7.2c0,0-1.3,3.8-3.5,3.5c-2.2-0.4-3.6-2.9-3.6-2.9l-1.4-7.5c0,0,0.7-3,1.9-3.7
	C178.3,229.3,182.2,233.5,182.2,233.5z"/>
<path class="st0" d="M166.3,217.6c1.7,1.3-1.5,17.7-2,16.4c0.3,0.6,2.2,1.7,1.2,2.8c-1,1.1-10.7-5.4-10.7-5.4s-7.4-10.2-7.3-11.6
	C147.6,218.4,164.6,216.3,166.3,217.6z"/>
<path class="st0" d="M167.2,213.2c0,1.3-5.6,3.2-5.6,3.2l-5.9-2.1c0,0-11.2,0.8-11.9-0.7c-0.6-1.4,4.3-5.1,6-5.6
	c1.7-0.6,13.3,1.9,13.3,1.9S167.2,211.8,167.2,213.2z"/>
<path class="st0" d="M345.4,293.2c0.4,1.4,4.6,11.2,4.1,11.2c-0.5,0-1.9,0-1.9,0l-2.8-2.7c0,0-1.5-6.9-1.4-8.5
	S345.4,293.2,345.4,293.2z"/>
<path class="st0" d="M343.3,287.6c0,0,1,2.8,2.1,2.8s1.5-2.9,1.5-2.9s-0.4-1.2-1.6-1.6C344.1,285.4,343.3,287.6,343.3,287.6z"/>
<path class="st0" d="M350.5,306.6c0-2.1,3.7-3.9,3.7-3.9l7.7-2.4c0,0,1.8-5.1,2.6-5.7s8.9,5,8.9,5s4.3,10,4.3,11.8
	c0,1.8-4,3.6-4,3.6s-4.7,2.3-5.6,2.3S350.5,308.7,350.5,306.6z"/>
<path class="st0" d="M364.4,322.7c0,1.5,2.3,4.6,2.3,4.6s3.4,1.3,3.8-0.1s1-5-0.1-5.8C369.3,320.6,364.4,321.2,364.4,322.7z"/>
<path class="st0" d="M384.4,340.4c0.7,1.2,3.8,6.1,3.8,6.9c0,0.8-1.5,3-3.6,3c-2.1,0-4.2-1.5-4.2-1.5s-5.7-8.1-5.7-9.5
	C374.7,338,383.7,339.3,384.4,340.4z"/>
<path class="st0" d="M41.1,239.1c1.6,1.4,3.2,21.7,1.8,23.1s-7.7,2.8-9.4,1.6c-1.7-1.3-2.5-23-1.7-24.5
	C32.5,237.9,39.5,237.8,41.1,239.1z"/>
<path class="st0" d="M44.6,266.1c2,0.8,6.7,14.1,5.8,15.6c-1,1.5-7,3.9-9.5,3.9s-8.3-14.7-6.7-17.4S42.6,265.3,44.6,266.1z"/>
<path class="st0" d="M52,286.3c1.5,0.4,9.2,11.4,9.2,14c0,2.7-2.1,4.6-4.4,3.7c-2.2-0.9-9.8-9.7-10.9-13s1.2-4,2.8-4.7
	S50.5,286,52,286.3z"/>
<path class="st0" d="M66.6,305.6c1.7-1,13.6,12.2,11.4,13.2c-2.2,1-14.6-6.6-15.2-9.3C62.1,306.6,64.9,306.5,66.6,305.6z"/>
<path class="st0" d="M53.8,308c2.1-0.9,10.3,5.9,10.3,8c0,2.2-1.1,3-1.1,3l-7.6-1.8c0,0-3.7-1.9-4.3-3.3S51.7,309,53.8,308z"/>
<path class="st0" d="M70.5,322.4c0-1.8,5.1,0.7,6.4,1.7c1.2,0.9,5.6,4.1,5.2,5.1S70.5,324.3,70.5,322.4z"/>
<path class="st0" d="M87,214.9c2.4,0-0.1-5.1-0.1-5.1s-1-0.9-2.5,0c-1.5,1,0.1,5.1,0.1,5.1S84.6,214.9,87,214.9z"/>
<path class="st0" d="M81.3,210.8c0.5,1.4-1.3,3.5-1.3,3.5s-6.1,1.1-7.5,0.9s-3.1-3.2-3.1-3.2S80.8,209.4,81.3,210.8z"/>
<path class="st0" d="M82.9,216.3c0,0.5,4.2,11.4,2.5,11.8c-1.7,0.4-9.3-10.4-10-11.7c-0.7-1.3,6-1.5,6-1.5L82.9,216.3z"/>
<path class="st0" d="M101.2,221.2c1.7-0.1,5.7,9.2,5,10.2s-7.8-0.9-7.8-0.9s-3.3-0.5-3.3-2S99.5,221.3,101.2,221.2z"/>
<path class="st0" d="M68.4,217.1c0.9,0,12.3,10.6,12.7,11.7s-2.6,1.1-2.6,1.1l-11.1-4.2c0,0-4.1-1.5-4.8-2.8
	C61.7,221.6,67.5,217.1,68.4,217.1z"/>
<path class="st0" d="M80.7,239c0.2-0.6,10.5-5.3,10.5-5.3l12.5,0.7l3.9,2.8c0,0,1.1,1.1,1.5,2c0.4,0.9-9.2,5.7-10.5,5.7
	s0.2-2.5,0.2-3.7c0-1.1-7.4-3.1-7.4-3.1s-9.4,3.3-10.1,3.4S80.7,239,80.7,239z"/>
<path class="st0" d="M78.7,236.3c1.1-0.4,0.9-2.5-0.6-3.5c-1.5-1-2.4-0.8-2.4-0.8l-12-3.4c0,0-4.6,0-5.8,0.7s-0.9,2.8,0.1,3.4
	c1,0.6,9.7-0.9,11.7-0.6C71.8,232.4,77.6,236.7,78.7,236.3z"/>
<path class="st0" d="M83.2,245.2c0.3,0.2,0.6,5.4,0.6,5.4s1.3,3.7,2.1,3.7s5.4-4.7,5.4-4.7s0.7-3.9-0.1-4.9
	C90.4,243.7,83.2,245.2,83.2,245.2z"/>
<path class="st0" d="M79.8,251.9L76.7,239l-3.7-2.7l-7.5-0.5c0,0-9.1,0.1-9.9,1.8c-0.8,1.7,0.1,7.3,0.1,7.3s-0.5,12.4,1.3,12.5
	c1.8,0.2,7.4-2,7.4-2l2.1-4.6l-0.8-3.6c0,0,1.4-3.6,2-3.9c0.6-0.3,3.9,1.7,3.5,2.8c-0.4,1.1-3.8,7.4-2.8,8.4s5.7,3.5,5.7,3.5
	l4.3-0.9L79.8,251.9z"/>
<path class="st0" d="M66.4,258.3l5.5,2.7c0,0,1.4,1.4,0.6,2.8c-0.7,1.5-12.9,4-15.1,4c-2.2,0-1.9-5.7-1.4-7.6
	C56.5,258.5,66.4,258.3,66.4,258.3z"/>
<path class="st0" d="M80,259.9c1.9,0.1,4.1,3,4.1,3s-0.5,1.8-0.4,2.6s3.1,0.8,3.1,1.9s-4.3,6.8-5.8,6.7c-1.5-0.1-4-9.5-4-9.5
	S78.1,259.7,80,259.9z"/>
<path class="st0" d="M85.3,258.6c-0.8,1.4,3.2,7.4,3.2,7.4l3.1,2.5c0,0,11.8-4.5,13.3-5.2c1.4-0.7-3.4-1.6-4.7-3.2
	c-1.4-1.6-0.3-5.4-2.1-6C96.4,253.4,86.1,257.3,85.3,258.6z"/>
<path class="st0" d="M100.4,251.5c0.5,0.6,0.4,6.1,2.4,6.1c1.9,0,4-0.5,4-0.5s7.7-11,6.9-12.5c-0.8-1.5-11.5,3.6-11.5,3.6
	L100.4,251.5z"/>
<path class="st0" d="M111,253.8c0,0-2.5,5.6-1.5,7.2c1.1,1.6,3.6,2.8,3.6,2.8s21.2,2.9,21.2,1.1c0-1.8-15.6-15.4-17.1-15.4
	C115.8,249.4,111,253.8,111,253.8z"/>
<path class="st0" d="M59.9,273.2l0.9,5.7c0,0,3,2.3,3.9,1.9c0.9-0.4,2.2-3.9,2.2-3.9s-0.9-2.8-0.1-3.8c0.8-1,2.8-0.6,2.8-0.6
	s2.2,4.1,2.2,6c0,1.9-1.9,5.4-3.3,5.4c-1.5,0.1-6-2.4-6.2-0.7c-0.2,1.8,6.1,14.6,7.8,14.6c1.7,0,2-4.3,2-4.3l4.5-16.5
	c0,0-0.3-7.6-1.8-8.9c-1.6-1.2-4.4-2.1-4.4-2.1s-6.2,0.3-7.7,1.7C61.2,269.1,59.9,273.2,59.9,273.2z"/>
<path class="st0" d="M111.9,277.7c4.9-1.8,11.8-7.2,12.5-7.9s0.8-2.1,0.8-2.1s-1-1.4-2.2-1.8c-1.2-0.4-10.9,1-11.9,2.1
	C110,269.1,106,276.1,111.9,277.7z"/>
<path class="st0" d="M86.6,275.9c0.8,0.9,5.7,0.8,5.7,0.8s0.2,1.1,1.5,1.3s2.3-1.4,2.3-1.4s0.6-5.1-0.1-5.8
	c-0.7-0.7-7.8,0.5-8.2,1.1S85.7,275.1,86.6,275.9z"/>
<path class="st0" d="M107.7,282.4c1.3-0.4,1.7-0.8,1.6-2.4s-3.1-2.2-3.6-2.7c-0.5-0.5-0.6-3.8-0.6-5c0.1-1.2,4.4-6.2,3.4-7
	c-1-0.8-7.8,3.5-7.8,3.5s-2.8,1.8-2.1,3.4c0.7,1.6,5.4,2,5.3,3.5c0,1.5-0.7,2.9-0.4,3.8C103.9,280.4,106.4,282.8,107.7,282.4z"/>
<path class="st0" d="M86,292.4c0.8,0.6,4.7-3.6,4.7-3.6s1.2-5.5,0.7-7.2s-8.6-3.3-8.6-3.3l-3.7,3.5l-1.8,3.2l-2.2,8.5
	c0,0-1.9,4.9-1.9,6.3c0,1.4,2.9,7.4,4.5,7.8c1.7,0.4,5.1-4.3,5.3-6.1c0.2-1.8-3.4-9.9-3.3-12c0.1-2.1,0.3-2.8,1.9-3.6
	c1.6-0.8,3.4,2,3.4,2S85.2,291.8,86,292.4z"/>
<path class="st0" d="M85.6,303l-3.8,7.7l8.8,4.2c0,0,7.3-1.5,12.3-11c-1.9-2.1-5.6-2.7-5.6-2.7l-7.1,4L85.6,303z"/>
<path class="st0" d="M85.4,298c0,1.6,4.7,4.2,6.4,4.2s4.6-6.8,4.6-6.8S95.7,284,94.6,284c-1.1,0-0.4,4.3-0.6,5.5
	c-0.2,1.2-3.9,5-3.9,5S85.4,296.4,85.4,298z"/>
<path class="st0" d="M98.8,283.3c-1.1,0.7,1.6,15.7,1.6,15.7l1.7,1l5.9-1c0,0,2.6-3,2.6-4.9s-1-6.6-2.9-7.5S99.9,282.7,98.8,283.3z"
	/>
<path class="st0" d="M87.4,319.6c-0.7,1.2,2.2,3.7,2.2,3.7l1.8,2.2c0,0,5.4,1.3,6.2-0.1c0.9-1.4-2-5.3-2-5.3l-3-1.7
	C92.6,318.5,88,318.4,87.4,319.6z"/>
<path class="st0" d="M98.3,317.2l1.3,6.7c0,0,1.7,2,3,2s3.5-1.2,3.5-1.2l1.4-3.9l-0.1-6.3c0,0-1.9-2.8-4.4-3
	C100.4,311.4,98.3,317.2,98.3,317.2z"/>
<path class="st0" d="M106.4,306l1.4,3.9c0,0,1.8,1.3,3.6,1.5c1.9,0.2,1.9-3.8,1.9-3.8l-2.9-4.6c0,0-1.1-1-2.3-1.2
	C106.8,301.7,106.4,306,106.4,306z"/>
<path class="st0" d="M114.6,294.1c-1.3,0.7-2.9,5.8-2.9,5.8l3.7,7.7c0,0,3.6,1.9,4.4,1.9c0.8,0-2.2-14-2.2-14S116,293.4,114.6,294.1
	z"/>
<path class="st0" d="M120.8,275.3c-0.9-0.8-3,1-3,1l-2.4,6l2.2,7.9l7.5,4.5c0,0,8-1.8,7.8-2.8c-0.2-1-10.6-5.2-11.3-5.7
	s-1.6-4.4-2.3-5.9C118.6,278.8,121.7,276.1,120.8,275.3z"/>
<path class="st0" d="M123,279.3c-1.2,0,1,4.1,1,4.1s4.8,4.3,6.2,4.3s2.5-3.8,2.5-3.8s0.3-2.4-1.2-3.2
	C129.9,280,124.2,279.3,123,279.3z"/>
<path class="st0" d="M126.9,273.1c0-1.1,8.1-4.1,9-4.4s7.5,4.5,7.5,4.5l2.1,9.3l1.4,11c0,0-3.2,7.2-4.1,7.8
	c-0.9,0.5-3.1,0.1-3.1,0.1s-4.1-11.1-4.9-13c-0.8-1.9,1.2-2,2.1-3.5c0.9-1.5-2.7-7.1-3.5-8c-0.7-0.8-4.7-0.7-4.7-0.7
	S126.9,274.2,126.9,273.1z"/>
<path class="st0" d="M145.9,272.1c-0.1,1.8,4.7,16,4.7,16l1.4,0.7c0,0,2-2.3,2-4.3c0-2-5.9-12.4-5.9-12.4S145.9,270.3,145.9,272.1z"
	/>
<path class="st0" d="M155.5,278.3c-1.2,1.1,1.7,9.6,3.4,10.3s4,0.6,4.8-0.1s-1-11.7-2.9-11.7C158.9,276.8,156.7,277.2,155.5,278.3z"
	/>
<path class="st0" d="M125.2,298.9c-1,1.1,2.3,6.5,2.3,6.5l2.7,1.9l5,0.6c0,0,2.6-4.6,2.6-5.8s-3.5-3.5-3.5-3.5
	S126.2,297.8,125.2,298.9z"/>
<path class="st0" d="M114,312.8c-2.2,0-4.6,5.7-4,7.4s8.7,4.8,8.7,4.8l5.1-0.1l3.2-3.6l-1-5.2c0,0-3.1-2.4-4.6-2.5
	c-1.5-0.1-1.8,2.6-3.5,2C116.3,315,116.1,312.8,114,312.8z"/>
<path class="st0" d="M129.9,313.4l0.8,4.3c0,0,2.7,2,3.2,2c0.4,0,3.6-0.9,4.2-2.2s-2.8-5.7-2.8-5.7s-1.8-1.5-3.6-1.5
	C129.9,310.3,129.9,313.4,129.9,313.4z"/>
<path class="st0" d="M136.7,308.7c0,1.6,2.1,3.6,2.1,3.6l3.8,2c0,0,4-3,5.6-3s2.6,1.7,3.6,1.5c0.9-0.1,1.7-2.3,1.7-2.3l-1.8-2.1
	c0,0-6-4.4-7.4-4.4S136.7,307.2,136.7,308.7z"/>
<path class="st0" d="M154.4,307.6c0,1.6,3.8,4.1,5.2,4.3c1.4,0.2,4.1-1.5,6.2-1.5c2.1-0.1,4.5,4,5.7,3.9c1.3-0.1-0.8-6.4-0.8-6.4
	l-3.5-4.2l-4.4-1.9l-6.8,3.4C156,305.2,154.4,306,154.4,307.6z"/>
<path class="st0" d="M151.7,303c0,0,13.6-3.2,14.8-4.2c1.2-1.1-1.7-6.1-3.1-7.1s-10.1-0.8-11.2-0.2s-4.2,8.1-3.5,9.6
	S151.7,303,151.7,303z"/>
<path class="st0" d="M168.1,284.4c-1.2,1.3,3.8,14.3,3.8,14.3s1.8,3.4,3.2,3.9c1.4,0.4,7.2-1.3,7.6-3.1c0.4-1.7-6.3-17-7.1-17.7
	C174.8,281.2,169.3,283.1,168.1,284.4z"/>
<path class="st0" d="M92.7,330.1c-1.2,1.4,2.8,8.3,2.8,8.3l7.1,9.7c0,0,7.2,10.2,9.2,10.6c2,0.4,4.9-2.1,4.9-2.1s4.3-7.7,4.3-9.4
	s-8.7-12.7-8.7-12.7s-0.8-1.6-2.8-1.7s-3.9,3.9-5.4,4.9s-0.8-2.2-1.1-3.7C102.9,332.2,93.9,328.8,92.7,330.1z"/>
<path class="st0" d="M116.4,333.9c0.6,2,8.9,12.3,8.9,12.3s3.3,4.2,5.4,3.5s2-20,1.4-21.4S115.7,331.9,116.4,333.9z"/>
<path class="st0" d="M137.1,328.6c0,0-3.3,8.3-2.6,9.3c0.7,1,2.8,0.5,2.8,0.5l5.1-3l4.5-8.8l-2.7-2.8c0,0-4.2-0.4-5.1-0.4
	S137.1,328.6,137.1,328.6z"/>
<path class="st0" d="M145.8,320c0,0.9,1.7,5.1,1.7,5.1l6.3,2.8l4.2-1c0,0,2.9-7.2,2.9-8.2c0-1-2.3-1-2.3-1s-1.4,3.7-2.3,4.4
	c-0.9,0.7-2.9-0.1-2.9-1.2c0-1.1,2-1.3,1.9-3.1C155.3,315.9,145.8,319,145.8,320z"/>
<polygon class="st0" points="163.2,323.5 160.6,331.9 164.7,335.9 171.9,334.2 170.9,327 169.3,323 "/>
<path class="st0" d="M177.7,307.2c-1.5,2.4,1.6,7,1.6,7s6.1,8.2,7.3,8.1s6.2-4,6.2-5.7c0-1.7-6.8-10.3-6.8-11.4s4-2.7,2-3.9
	C186,300.1,179.2,304.8,177.7,307.2z"/>
<path class="st0" d="M135.2,342.6c0,0,2,16.5,3.7,16.5s4.8-1.6,4.8-1.6s-2-16-4.4-16S135.2,342.6,135.2,342.6z"/>
<path class="st0" d="M149.4,341.3c-0.9,0.2-0.2,12,1,11.8s3.5-5.3,3.5-5.3l-0.7-4.4C153.2,343.4,150.3,341.1,149.4,341.3z"/>
<path class="st0" d="M132,354.6c0,0,4.8,13.5,4.7,15.5c0,2.1-5,5-5,5l-3.5,0.5c0,0-13.4-11.2-13.4-13.1c0-1.9,7.9-12.1,9.8-12.1
	S132,354.6,132,354.6z"/>
<path class="st0" d="M132.1,378.6c0.9,1.2,14.4,13.6,16,10.8s-7.5-12.9-8.9-14.7S131.2,377.3,132.1,378.6z"/>
<path class="st0" d="M139.7,362.8c0.2,1.2,6.3,18.3,8.8,18c2.5-0.3,6.4-14.2,7-15.5c0.6-1.3-9.2-5.2-10.4-5.2
	S139.5,361.7,139.7,362.8z"/>
<path class="st0" d="M160.9,347c-1.2,0-7.1,7.6-6.8,9.5c0.4,1.9,3.4,3.2,4.9,3.4c1.5,0.3,9.6-3.5,10.8-4c1.1-0.4-1.6-5.2-1.6-5.2
	S162.1,347,160.9,347z"/>
<path class="st0" d="M170.3,358.4c0,0.9-1.8,2.7-1.8,2.7s-2.3,0.2-2.3-1.3c0-1.5,1.2-2.2,1.2-2.2S170.3,357.5,170.3,358.4z"/>
<path class="st0" d="M171.7,353.8c0.2,1.3,2.4,3.6,2.4,3.6s0.6,0.9,1.8,0.9s6.6-9.5,6.6-10.6s-4-1.4-4-1.4s-1.8,4.9-2.7,5.4
	C174.8,352.2,171.5,352.5,171.7,353.8z"/>
<path class="st0" d="M187.9,337.9c-0.7,0.5,2.7,5.9,2.7,5.9s2.5,2.2,3.5,2.2s1.3-2.9,1.3-2.9l-3.8-5.7
	C191.6,337.4,188.6,337.4,187.9,337.9z"/>
<path class="st0" d="M189.3,326.3c0,1,2.2,4.9,2.2,4.9l5.4,4.1l6.7,4.9c0,0,4.7-5.3,4.7-6.5s-7.9-7.6-7.9-7.6s-2.5-7.5-4.5-7.6
	S189.3,325.4,189.3,326.3z"/>
<path class="st0" d="M213.7,337.4c-1.7-0.1-5.5,7.4-5.2,8.3c0.3,0.9,22.9,11.1,23.7,9.9c0.8-1.2-14.3-13.5-14.3-13.5
	S215.4,337.5,213.7,337.4z"/>
<path class="st0" d="M201.9,346.2c1.3,0.4,7.8,11.6,6.9,12.4c-1,0.8-2.9-0.5-4.4-2.4C202.9,354.4,200.6,345.8,201.9,346.2z"/>
<path class="st0" d="M197.4,349.8c1.4,0,4.8,10.2,4.8,10.2s0.6,1.1-0.9,1.7s-2.7-1.8-2.7-1.8l-3-9.3
	C195.6,350.5,196,349.8,197.4,349.8z"/>
<path class="st0" d="M192.6,352.3c0.9,0.2,3.1,8.3,3.1,8.3l-1.4,2c0,0-0.5,1.6-2.7,0.1s-2.4-9.9-2.4-9.9S191.8,352.1,192.6,352.3z"
	/>
<path class="st0" d="M184.8,353.6c1.5,0,0.5,4.6,0.5,4.6s0.2,3.2-2.1,3.2c-2.3,0-3.8-2.3-3.8-2.3S183.3,353.6,184.8,353.6z"/>
<path class="st0" d="M157.9,389.6c0,0-1.9,1.4-1.8,2.7c0.2,1.3,3.6,1.3,3.6,1.3s1.2-0.8,0.9-2.5
	C160.2,389.3,157.9,389.6,157.9,389.6z"/>
<path class="st0" d="M161,386.3c1.1,0.1,6.8-16.4,5.4-18c-1.4-1.6-9,1.3-9,1.3s-3.9,6.7-2.9,6.7c1,0,1.2-1.4,2.5-1.2
	c1.3,0.3-2.2,5.1-2.5,6.1c-0.3,1,1.4,1.8,1.4,1.8l2.6-2.3c0,0,1.2-0.8,1.8,1C161,383.4,159.9,386.2,161,386.3z"/>
<path class="st0" d="M167.6,366.6c0,0,0.1,5.1,1.6,6.1c1.5,1,14.8-1.2,14.8-1.2s0.4-5-0.1-6.7c-0.5-1.7-3.9,3.1-5.2,1.1
	c-1.3-1.9,1.7-0.4,0.9-3.1S167.6,366.6,167.6,366.6z"/>
<path class="st0" d="M167.8,378.9c0,0-4.6,5.9-3.8,6.7c0.9,0.9,12.8-4.2,12.8-4.2s3.7-4.6,2.9-6C178.9,374,167.8,378.9,167.8,378.9z
	"/>
<path class="st0" d="M164.6,390.8l-2.2,3.8l1.9,3.2c0,0,17.2,10.9,19,10.1s-2.5-16.8-2.5-16.8s-4.6-3.1-6-3.1
	S164.6,390.8,164.6,390.8z"/>
<path class="st0" d="M177.2,385.3c0,0,3.6,3.7,5.8,3.3c2.2-0.4,7.1-14.2,5.1-14.9C186,373,177.2,385.3,177.2,385.3z"/>
<path class="st0" d="M191.4,371.5l0.9,2.9c0,0,4.2,2.9,5.2,2.9c1,0,1.2-2.3,1.2-2.3l-2.3-2.2l2.2-3.2c0,0-4-2.4-5.2-2.4
	S191.4,371.5,191.4,371.5z"/>
<path class="st0" d="M191.6,379.7c-2.2,0.2-3.3,7.3-3.3,7.3s-2.1,2.4-1.3,4.1c0.8,1.6,10.7,1.1,12.6,1.1c1.9,0-0.2-10-0.2-10
	S193.8,379.5,191.6,379.7z"/>
<path class="st0" d="M186,394.9c-1.9,1,0.1,7.1,0.1,7.1s5.3,6.5,6.8,6.5s1.6-3.2,1.6-3.2s-2.1-2.3-1.7-3.7c0.4-1.3,2.1,1.3,3.7,1.2
	c1.6-0.1,3.1-5.6,2-6.8C197.5,394.9,187.9,393.9,186,394.9z"/>
<path class="st0" d="M194.4,410.2c0.7-1.8,4.4-3.1,5.8-3.1s5.3,2.9,5.3,2.9s0.6,6.4-0.6,6.9c-1.2,0.5-3.2,0.1-3.2,0.1l-6.7-4
	C195.2,412.9,193.8,412,194.4,410.2z"/>
<path class="st0" d="M201.7,403c1,1.5,6.4,4,6.4,4l4.2-2.1c0,0-6.8-20.1-8.4-20.1s-2.4,5.1-2.4,5.1S200.7,401.5,201.7,403z"/>
<path class="st0" d="M202.3,368.8c-0.6,1.5,4.9,13.3,4.9,13.3s2.5-0.4,3.3-1.3c0.8-0.9-4.9-13.2-4.9-13.2S203,367.2,202.3,368.8z"/>
<polygon class="st0" points="210.1,388.1 213.1,397.3 216.5,398.8 218.9,394.9 213.7,386.1 "/>
<path class="st0" d="M217.1,402.4c0,1.4,4.4,7.9,4.4,7.9s5.2,5.1,7.1,5.5s3.7-2.7,3.7-2.7l-1.5-6l-3.4-3.1l-6.1-3.6
	C221.3,400.2,217.1,401,217.1,402.4z"/>
<path class="st0" d="M216.5,408l5.1,7.5c0,0,12.5,5.2,11.9,7.3s-13.1-0.7-13.1-0.7l-6.4-1.1l-6.7-4.2l0.7-4.9c0,0,0.8-2.5,1.8-3.6
	C210.6,407.1,216.5,408,216.5,408z"/>
<path class="st0" d="M232.3,417.3c0,1.3,9.1,4.8,9.1,4.8s17.6-0.3,17.6-1.9c0-1.6-8.6-1.2-10.2-1.4c-1.6-0.2-3.4-2.8-6.2-3.7
	C239.8,414.1,232.3,415.9,232.3,417.3z"/>
<path class="st0" d="M208.8,363.1c0,1.5,5.9,15.4,7.8,15.4c1.9,0,4.1-3.5,4.1-4.9s-9.3-11.3-9.3-11.3S208.8,361.6,208.8,363.1z"/>
<path class="st0" d="M218.7,383.4c1.1,0,5.8,10.7,5.8,10.7l5.8,2.9l3.5-5.5l-5.4-8.8l-6.2-3.1L218.7,383.4z"/>
<path class="st0" d="M232,401.9c0.3,1.8,4.2,3.8,4.2,3.8s9.7,6.4,12,6.8s5.1-5.1,5.5-8.1c0.4-3-14.6-11.1-16.7-11.5
	C234.9,392.5,231.7,400.1,232,401.9z"/>
<path class="st0" d="M257.7,406.1c0,0-6.1,5.6-5.7,6.4c0.4,0.8-0.3,3.4,2,4c2.3,0.6,16.4,2.1,17.4,1.2c1-0.9,1.8-5.8,1.5-7.4
	c-0.4-1.7-3.6,2-3.6,2s-4.5-0.9-4.6-2.1c-0.1-1.1,1.1-1.5,0.5-3c-0.6-1.4-4.2-2.5-4.2-2.5L257.7,406.1z"/>
<path class="st0" d="M278.4,409.5c0,0-5.2,6.5-3.7,7.4c1.4,0.9,11.3-3.9,11.3-3.9s9.7-5.7,9.6-6.6s-13.1,2.2-13.1,2.2L278.4,409.5z"
	/>
<path class="st0" d="M277.9,405.7c0.9-0.2,16.9-5.2,16.9-5.2s1.5-3,1.5-4.1c0-1.1-4.3-2.8-4.3-2.8l-8.9,0.2l-6.9,2.4l-3.6,2.5
	c0,0-3.1,3.1-2.5,4.5C270.6,404.5,277.9,405.7,277.9,405.7z"/>
<path class="st0" d="M214.6,356c0,0,11.5,15.4,12.1,15.6c0.6,0.2,3.6,3.8,4.9,3.3c1.2-0.4,5.1-8.6,5.1-10.3S217.5,353,216.2,353
	C214.8,353,214.6,356,214.6,356z"/>
<path class="st0" d="M235,357.2c0,0,3.8,2.5,4.7,2.5s0.9-1.4,0.9-1.4s-3.6-3.5-4.8-2.8C234.5,356.3,235,357.2,235,357.2z"/>
<path class="st0" d="M233.6,380.3c0,0,5.8,7.1,6,7.3s8.4,5.1,8.4,5.1l1.5-0.8l2.1-2l-2.1-4.4l-3.1-2.1L233.6,380.3z"/>
<path class="st0" d="M250.6,375.2c0,0,7.1,4,8.5,4.6c1.5,0.6,4.3-1.1,4.3-1.1s1.1-1.7,1.1-3.4c0-1.7-2.2-0.1-2.8-1.6
	c-0.6-1.5,2-2.8,1.8-4.4c-0.2-1.6-10.6-2-11.8-1.2c-1.2,0.8-1.2,3-1.2,3L250.6,375.2z"/>
<path class="st0" d="M256.9,385.3l-4,7.3c0,0-1,3.6,0.1,4c1.1,0.4,3.5-0.1,3.5-0.1l1.4,1.5c0,0,6.5,4.2,7.8,4.2
	c1.3,0,6.6-11.5,6.6-11.5s-1.9-6.3-2.8-7.9C268.8,381.2,256.9,385.3,256.9,385.3z"/>
<path class="st0" d="M272.3,384.4c-0.9,1.3,2.1,8.3,3.7,8.7s6.2-4.7,6.9-6c0.7-1.2-0.6-5.7-1.7-7.2
	C280.2,378.4,273.2,383.2,272.3,384.4z"/>
<path class="st0" d="M268,370.8c-0.8,1.4-0.1,6.6,1.6,7.4c1.7,0.8,17.1-4.7,18.3-5s-1.5-1.4-1.5-1.4S268.8,369.4,268,370.8z"/>
<path class="st0" d="M300.2,373.1c0,1.2,6.7,10.3,8,10.3s7.9-0.9,10-2.4c2.1-1.4,4.1-10.8,4.1-12.1
	C322.2,367.8,300.2,371.9,300.2,373.1z"/>
<path class="st0" d="M310,387.9c-1.1,1.2,0.5,7.9,2.4,7.9c2,0,9.8-0.1,11.6-1.8s-3.8-9.1-5.4-9.6C317.1,384,311.1,386.7,310,387.9z"
	/>
<path class="st0" d="M336.5,386.3c0,1.9,0.8,7.1,2.3,7.1c1.5,0.1,10.6-1,10.6-1s16-2.8,16-4.4c0-1.6-2.5-5.7-2.5-5.7l-2.7-1.9
	l-12,0.8C348.3,381.3,336.5,384.4,336.5,386.3z"/>
<path class="st0" d="M343.5,366c0.5,1.6,6,7.6,7.2,7.6c1.2,0,3.9-3.8,3.9-6.1s-1.3-3.9-1.3-3.9s-2.7-2.8-3.8-2
	C348.4,362.4,343.1,364.4,343.5,366z"/>
<path class="st0" d="M360.4,366.6c0,0-6.3,7.9-5.6,9.5c0.6,1.5,2.9,1.5,2.9,1.5s11.8-3.8,11.8-5s0.5-7.3-1.9-7.3
	C365.4,365.3,360.4,366.6,360.4,366.6z"/>
<path class="st0" d="M369.6,377.9l-2.4,4.4l1.3,2.5l2,0.6l8.5-7.2l6.1-5.9c0,0,2.3-11.4,1.4-11.4c-0.9,0-6.4,10.4-6.6,10.9
	C379.6,372.2,369.6,377.9,369.6,377.9z"/>
<path class="st0" d="M370,363.2l1.7,5.7c0,0,2.1,0.8,2.5,0.8c0.5-0.1,2.9-2.5,2.9-2.5s5.9-7.9,5.9-9.4c0-1.5-8.7-0.9-9.9,0.2
	C371.9,358.9,370,363.2,370,363.2z"/>
<path class="st0" d="M369.3,357.9c0,1.2-2.4,4.3-2.4,4.3s-6.3,1.8-7.8,1.8s-2.5-1.7-2.6-2.9S369.3,356.7,369.3,357.9z"/>
<polygon class="st0" points="370.9,349.5 364.6,333.8 357.3,318.9 340.7,306.4 320.8,293.6 295,282.7 275.9,278.4 256.5,276.3 
	234.9,274.8 211.1,274.5 192.7,274.8 190.5,279.1 191.8,289.9 196.1,300.4 202,315 210.1,327.8 225.2,342.9 236.3,351.2 
	252.6,359.5 273,366.3 295.5,369.5 315.6,367 337.5,361.5 359.9,356 370.3,352.3 "/>
<path class="st1" d="M423.1,319.9c0.2,1.1,1.3,3.3,0.2,4.6c-1.1,1.3-1.5,3.1-2.7,3.1s-1.6-3.1-1.6-3.1s-1.4-4.6,0-5.3
	S423,318.7,423.1,319.9z"/>
<path class="st0" d="M412,275.3c0,2.3,6.8,19.3,7.9,19.3s10.2-19,10.2-20.4s-11.5-3.5-11.5-3.5S412,273,412,275.3z"/>
<path class="st0" d="M415.5,239.7c1,0.1,4.8,8.6,4.8,9.7s-1,3.2-2.3,3.2c-1.4,0-6.7-3-7.2-4S414.5,239.5,415.5,239.7z"/>
<path class="st0" d="M403.1,262.5c1.4,0.5,4.8-5.1,9.2-3.2c1.8-4.7-3.2-7.5-4.5-7.1C406.5,252.5,401.7,262,403.1,262.5z"/>
<path class="st0" d="M404,239.8c0.9,0.4,0,9.5,0,9.5s-1,3.8-2.8,3.8c-1.9,0-7.2-2.5-6.5-3.8C395.3,248.1,403.1,239.4,404,239.8z"/>
<path class="st0" d="M403.1,231.1c1.3,0.5,6,2.7,6.9,2.7c1,0,0-3.8,0-3.8s-3.7-5.4-4.9-5.4c-1.1,0-3.4-0.4-4,0
	C400.6,225,401.7,230.6,403.1,231.1z"/>
<path class="st0" d="M401.2,219.3c0.9,0.6,10.8,3,11.2,2c0.3-1-2.2-3.7-2.3-4.5c-0.1-0.9-8.2-4.8-8.8-4.8S400.3,218.7,401.2,219.3z"
	/>
<path class="st0" d="M405.8,205.3c-0.2,1.2,5.2,9.3,6.5,9.3c1.3,0,2-3.4,1.3-4.7c-0.7-1.2-3.1-7.1-3.9-7.1
	C408.9,202.9,406.1,204.2,405.8,205.3z"/>
<path class="st0" d="M415.1,197.1c0,2,5.5,10.5,6.6,10.5s5.8-11.1,4.9-12.5s-4.8-8.1-5.8-8.1C419.9,187,415.1,195,415.1,197.1z"/>
<path class="st0" d="M421.9,216.3c0.8,0.9,0.8,14.8,0.8,14.8s-1.8,0.6-2.8-0.7s0-14,0-14S421,215.5,421.9,216.3z"/>
<path class="st0" d="M388.3,242.1c0,0,0,1.2-0.5,2.7"/>
<path class="st0" d="M379.7,234.1c0,0,8.3,0.3,8.6,8.3"/>
<path class="st0" d="M380,234.1c0,0-7,0.2-8.4,6.4c0,0.2-0.1,0.3-0.1,0.5"/>
<path class="st0" d="M365.7,223.2c0,0-0.2,4.9-3.9,7.3c-0.2,0.1-0.4,0.2-0.6,0.3"/>
<path class="st0" d="M357.1,215.1c0,0,8.3,0.3,8.6,8.3"/>
<path class="st0" d="M350.1,225.1c0.2,1.1,1.5,2.9,1.7,3.6"/>
<path class="st0" d="M357.5,215.1c0,0-5.2,0.2-7.5,4.1"/>
<path class="st0" d="M274.2,191c-1.2,0.9-2.7,1.5-4.8,1.5"/>
<path class="st0" d="M269.1,175.9c0,0,3.9,0.1,6.5,2.8"/>
<path class="st0" d="M268.9,192.5c0.2,0,0.4,0,0.6,0"/>
<path class="st0" d="M269.5,175.9c0,0-4,0.1-6.6,2.9"/>
<path class="st0" d="M262.5,166.5c0,0-0.2,5.7-4.7,7.8"/>
<path class="st0" d="M253.9,158.4c0,0,8.3,0.3,8.6,8.3"/>
<path class="st0" d="M254.3,158.4c0,0-4.9,0.2-7.3,3.8"/>
<path class="st0" d="M243.3,150.7c0,0-0.1,3.9-2.8,6.5"/>
<path class="st0" d="M234.7,142.6c0,0,8.3,0.3,8.6,8.3"/>
<path class="st0" d="M235,142.6c0,0-7.1,0.2-8.4,6.5"/>
<path class="st0" d="M217.6,142.4c0,0-0.1,2.5-1.4,4.8"/>
<path class="st0" d="M209,134.3c0,0,8.3,0.3,8.6,8.3"/>
<path class="st0" d="M200.7,142.3c0,0,0.1,2.5,1.5,4.8"/>
<path class="st0" d="M209.3,134.3c0,0-8.3,0.3-8.6,8.2"/>
<path class="st0" d="M43.2,322.2c-0.5,2.4-2.2,6.9-8.1,7.1"/>
<path class="st0" d="M34.8,312.6c0,0,2.7,0.1,5,1.6"/>
<path class="st0" d="M26.6,320.6c0,0,0.3,8.3,8.6,8.6"/>
<path class="st0" d="M35.2,312.6c0,0-8.3,0.3-8.6,8.2"/>
<path class="st0" d="M95.9,357.1c-1.1,2.1-3.1,4.2-7.1,4.3"/>
<path class="st0" d="M80.2,352.8c0,0,0.3,8.3,8.6,8.6"/>
<path class="st0" d="M88.8,344.8c0,0-0.4,0-0.9,0.1c-2.2,0.3-7.5,1.8-7.7,8.1"/>
<path class="st0" d="M121.4,379.5c-0.9,2.4-2.9,5.3-7.6,5.5"/>
<path class="st0" d="M105.2,376.3c0,0,0.3,8.3,8.6,8.6"/>
<path class="st0" d="M110.1,369.2c-2.3,1-4.7,3-4.9,7.3"/>
<path class="st0" d="M412.6,157.1c0,0,0.2,5,4.1,7.4"/>
<path class="st0" d="M421.2,149.1c0,0-8.3,0.3-8.6,8.2"/>
<path class="st0" d="M148,396.5c-0.3,2.2-1.8,7.5-8.2,7.7"/>
<path class="st0" d="M131.3,395.6c0,0,0.3,8.3,8.6,8.6"/>
<path class="st0" d="M134.7,389.3c-1.7,1.2-3.3,3.2-3.4,6.5"/>
<path class="st0" d="M177.1,413c0,0-0.3,8.3-8.3,8.6"/>
<path class="st0" d="M160.2,413c0,0,0.3,8.3,8.6,8.6"/>
<path class="st0" d="M165.7,405.6c-2.4,0.9-5.4,2.9-5.6,7.6"/>
<path class="st0" d="M205.8,425c0,0-0.3,8.3-8.3,8.6"/>
<path class="st0" d="M188.9,424.9c0,0,0.3,8.3,8.6,8.6"/>
<path class="st0" d="M191.5,419.3c-1.4,1.2-2.4,3.1-2.5,5.8"/>
<path class="st0" d="M234.4,432.4c0,0-0.3,8.3-8.3,8.6"/>
<path class="st0" d="M233.7,429.3c0.4,0.9,0.7,2,0.7,3.4"/>
<path class="st0" d="M217.6,432.4c0,0,0.3,8.3,8.6,8.6"/>
<path class="st0" d="M219.5,427.4c-1.1,1.2-1.8,2.9-1.9,5.2"/>
<path class="st0" d="M268.8,431.8c0,0-0.3,8.3-8.3,8.6"/>
<path class="st0" d="M265.5,425.5c1.7,1.2,3.2,3.2,3.3,6.5"/>
<path class="st0" d="M252,431.8c0,0,0.3,8.3,8.6,8.6"/>
<path class="st0" d="M254.5,426.2c-1.4,1.2-2.4,3.1-2.5,5.8"/>
<path class="st0" d="M299.5,422.8c0,0-0.3,8.3-8.3,8.6"/>
<path class="st0" d="M295.4,416.1c2,1.1,4,3.2,4.1,7"/>
<path class="st0" d="M282.6,422.8c0,0,0.3,8.3,8.6,8.6"/>
<path class="st0" d="M282.8,421.4c-0.1,0.5-0.2,1-0.2,1.6"/>
<path class="st0" d="M412.4,418.1c0,0,0.3,8.3,8.6,8.6"/>
<path class="st0" d="M417.5,410.9c-2.3,0.9-5,3-5.1,7.4"/>
<path class="st0" d="M802.6,314.2l-5.9-0.2l-4.4-8.1c0,0,11.6-11.2,24.1-18s17.9,4.7,17.9,4.7s5.8,4.4,7.6-2.4
	c-1.5-19.4-31.8-6.8-31.8-6.8s13.5-25.3,11.6-44.7s-21.2-12.3-21.2-12.3s-19.9-47.8-56.3-22.1c-0.6-0.9-0.9-0.5-0.8-1.8
	c19.7-20.8,15.1-81.4-23.8-56l-2.2,1.3c0,0-20.5-12.7-45.4,6.1c-21-4.2-32.4-7.7-32.4-7.7"/>
<polyline class="st0" points="799.2,322.9 795.1,318.2 789.9,319.2 754.1,339 754,344.7 "/>
<polyline class="st0" points="746.8,358.5 740,355.1 732.3,369.4 "/>
<line class="st0" x1="720.9" y1="379.7" x2="707.2" y2="390"/>
<line class="st0" x1="694.3" y1="396.9" x2="677" y2="405.8"/>
<line class="st0" x1="665.4" y1="413.3" x2="650.8" y2="419.9"/>
<line class="st0" x1="636" y1="425.3" x2="622.4" y2="428.1"/>
<line class="st0" x1="608.1" y1="429.8" x2="587.7" y2="426.7"/>
<line class="st0" x1="576.4" y1="426.2" x2="558.9" y2="421.9"/>
<path class="st0" d="M546.2,416.5l-20.3-18.3c0,0-44.1,8.7-72.7-21.9c-18.3,4.7-19.1,8.6-19.1,8.6l-7.9,22.8l-1.2,3.4"/>
<line class="st0" x1="625.2" y1="146.5" x2="614.5" y2="148.7"/>
<line class="st0" x1="601.5" y1="156.4" x2="594.2" y2="162.1"/>
<line class="st0" x1="583.9" y1="173.8" x2="578.6" y2="178.2"/>
<path class="st0" d="M566.5,177.9c0,0-15.7-18.2-16.2-0.3c0,0-24.2-13.8-42.8,17.9c-8.5,14.5-13.2,20.7-15.8,23.2"/>
<line class="st0" x1="480" y1="230.7" x2="470.6" y2="240.1"/>
<path class="st0" d="M454,245.1l-7.8-13.1l3.2-24.7l-2.7-4.5c0,0-14.9-3.9-21-37.3l0-2.2"/>
<path class="st0" d="M425.5,360.3c-0.8,1.3,1.1,14.1,1.1,14.1s10.2,10.3,15.2-1.1C439.3,360.1,426.2,359,425.5,360.3z"/>
<path class="st0" d="M441.5,360.6c-0.8,1.6,1.1,6.3,1.1,6.3s1.9,5.8,3.2,5.8c1.3,0,3.2-2.8,3.2-2.8s1.1-1.5,1.1-3.1
	c0-1.5-4.3-6.1-4.3-6.1S442.3,359.1,441.5,360.6z"/>
<path class="st0" d="M425.8,343.2c-0.2,0.6-1.1,2.4-1,3.4s2.6,3.8,2.6,3.8s2.6-1.3,3.3-1.2c0.8,0.1,0.1-3,0.1-3l-1.3-3
	C429.4,343.3,426,342.6,425.8,343.2z"/>
<path class="st0" d="M425,336.3c0,0-0.7,4.6-0.1,5.1c0.6,0.5,2.1,0,2.1,0s4.3-1.8,6.6-1c2.3,0.8,2.2,8.7,2.7,10.1
	s14.4-3.7,10.1-10.8c0,0-5.7-11.2-14.5-2.1C428,332.9,425,336.3,425,336.3z"/>
<path class="st0" d="M427.2,326.4c0,0.9-0.8,6.5,0.8,6.5s3.9-4,3.9-5.4s-0.9-3.4-2.3-3.4S427.2,325.5,427.2,326.4z"/>
<path class="st0" d="M428.4,314.3c-1.3,1-0.2,8-0.2,8s4.7-1.1,6.2,0.1c1.5,1.2,11.3,10.9,13,10.9s15.6-9.3,15.6-11.2s-1.4-3-1.4-3
	s-16.9-6-19.2-6s-3,2.4-4.7,3C435.9,316.7,429.7,313.3,428.4,314.3z"/>
<path class="st0" d="M432.3,305.5c0,0-1.8,2.1-0.9,3.2c1,1.1,4.4,0.1,4.4,0.1s1.7-1,0.9-2.6C435.9,304.5,432.3,305.5,432.3,305.5z"
	/>
<path class="st0" d="M434.9,296.7c0,0-0.8,3.8-0.1,5c0.7,1.2,4.9,1.2,4.9,1.2s2.6,5.6,3.2,5.9c0.6,0.3,10,2.3,11.6,2.3
	s3.7-11.2,3.7-12.5s-8.1-3.8-10.1-4c-1.9-0.1-5.1,4.7-6.3,4.3S434.9,296.7,434.9,296.7z"/>
<path class="st0" d="M442,286.5c-0.7,0.3-1.3,3.1-1.3,3.1l1.2,1.5c0,0,2.1,0.9,3.3,1.2c1.2,0.3,1-1.8,1-1.8S442.8,286.2,442,286.5z"
	/>
<path class="st0" d="M443.6,283.5c0,1.4,4.8,0.9,4.8,0.9l4.4,8c0,0,5.8,3.6,7.2,3.6c1.4,0,4.3-2.2,4.9-3.3c0.5-1.1-0.6-2.2,0.1-3.6
	s4.7-0.4,3.8-2c-0.9-1.6-2.9-5.1-2.9-5.1s-2.3-4.1-3.5-4.3c-1.1-0.2-8.9,4.2-8.9,4.2s-6-2.7-7.7-2.1
	C444.1,280.3,443.6,282.1,443.6,283.5z"/>
<path class="st0" d="M455.4,256.4c0,1.7-8.8,13.9-10.6,13.9s-1.8-11.2-1.8-12s4-2.8,4-2.8S455.4,254.7,455.4,256.4z"/>
<path class="st0" d="M461.1,260.6c-0.9-0.9-3.6,1.8-3.6,1.8l-0.1,3.3c0,0,3.6,9.7,5.2,9.7c1.5,0,4.7-2.9,4.7-2.9s1.1-2.5,1.1-4.4
	c0-1.8-6.2-3.9-6.2-3.9S462,261.5,461.1,260.6z"/>
<path class="st0" d="M480.2,257.5c-1.3,0.3-0.4,7.7-1.4,8.3c-1,0.6-7.6,4.5-7.6,4.5l-1.3,8.4c0,0,2.1,6.2,3.4,6.6
	c1.3,0.4,11.6-3.7,12.4-3.2s2.6-12.7,2.3-13.7s-0.4,0.4-1.9,0c-1.5-0.5-2.6-5.5-2.6-5.5s0.2-3,0.6-3.9S481.5,257.2,480.2,257.5z"/>
<path class="st0" d="M475.5,257.4c1.1,0,1.1,2.7,1.1,2.7s-2.6,3.4-3.4,3.4s-1.9-0.2-2-2S474.4,257.4,475.5,257.4z"/>
<path class="st0" d="M489.9,259.2c0,1.2,3.5,3.3,3.2,4.6c-0.2,1.3-2.5,2.2-2.3,3.6s5.1-1.6,5.9-1.9s2-3.8,2.5-5.2
	C499.6,258.8,489.9,258,489.9,259.2z"/>
<path class="st0" d="M487.9,250.4l-3-0.9c0,0-1.3-3.2-0.4-3.8s5.8-0.3,5.6,1.7S487.9,250.4,487.9,250.4z"/>
<path class="st0" d="M488.5,243c0,0-8.8-0.9-8.9-1.9c-0.1-1-0.4-5.5,0.7-5.6c1.2-0.1,3,3.1,3,3.1l5.3-3c0,0,7.7,2.3,7.2,3.8
	C495.4,240.9,488.5,243,488.5,243z"/>
<path class="st0" d="M493.5,244.4l-0.1,3c0,0,0.1,3,1.3,2.5s2.6-0.9,2.6-0.9l0-2.6c0,0-0.3-2.7-1.5-2.8
	C494.5,243.5,493.5,244.4,493.5,244.4z"/>
<path class="st0" d="M490.1,228.5c0,0,2.8,4.6,3.6,4.8c0.8,0.2,8.2,0.2,8.2,0.2s7.6-3.2,8.6-4.5s4.5-11.7,4.5-12.6
	s-5.4-13.3-6.9-12.7c-1.5,0.6-11.1,23.2-12.3,23.3c-1.2,0-4-1.6-4-1.6"/>
<path class="st0" d="M518.7,216.4c-0.9,0.8-2.8,11.6-2.8,11.6l4,6.8l9.4,0.2c0,0,4.1-0.7,4.1-1.7s-2.1-4.6-2.1-4.6l-6.6-2.2
	c0,0-2.8-3.2-2.4-4.7c0.4-1.5,2.3-2.3,2.6-4.1C525.2,215.9,519.6,215.6,518.7,216.4z"/>
<path class="st0" d="M518.2,239.9c0,0-0.2,4.9-1.7,5.7c-1.5,0.8-2.4,0.4-2.9,0.7c-0.5,0.4-7.3-0.3-7.6-0.9s-4.5-8.5-4.5-9.4
	c0-1,8.7-4.3,9.9-3.9c1.2,0.5,6.2,5.1,6.2,5.1L518.2,239.9z"/>
<path class="st0" d="M521.9,240c-0.9,1-1.4,7.3-1.4,7.3s0.7,2.2,2.1,2.2c1.4,0,5.6-3.5,5.6-3.5s3.4-7.3,3.4-8.3
	C531.6,236.7,522.8,239,521.9,240z"/>
<polygon class="st0" points="506.5,260.2 514,270 517.1,267.9 517.8,264.3 516.7,261.6 "/>
<path class="st0" d="M539.5,223.4c-0.8,0.7,2.9,3.8,3,5.2c0.1,1.3-3.5,8.6-1.7,8.1c1.8-0.5,5.7-12.4,5.7-12.4
	S540.3,222.7,539.5,223.4z"/>
<path class="st0" d="M538.5,219.2c0,0-7-3.5-7-4.8c0-1.3,5.6-8.3,5.6-8.3l3.5-1.8c0,0,5.6-0.9,7-0.4c1.4,0.4,1.4,6.9,1.4,6.9l-1,6.8
	l-2.7,1.8L538.5,219.2z"/>
<path class="st0" d="M542.6,198.5c1.2,0.4-0.7,2.7-0.7,2.7s-2.3,2.4-3.5,2.4c-1.1,0.1-1.1-0.9-1.1-0.9l1.3-2.9
	C538.6,199.8,541.4,198.1,542.6,198.5z"/>
<path class="st0" d="M554,193.7c0,0-11.3-6.9-11.1-8.2c0.2-1.3,0.5-4.9,2-4.9s8.5,6.6,8.5,6.6s2.8,2.7,2.8,4.8
	C556.2,194.2,554,193.7,554,193.7z"/>
<path class="st0" d="M555.5,198.7l1.4,5.8c0,0,1.8,4.2,2.8,4.7s0.7-7.9,0.7-7.9s-2.3-4.7-3.2-4.6S555.5,198.7,555.5,198.7z"/>
<path class="st0" d="M568.2,191.2c0,0-1.8,8.6-2.2,9.3c-0.3,0.6,0,2,1,2s2.3-1.2,2.5-1.8c0.2-0.6,2.8-8.3,2.8-8.3"/>
<path class="st0" d="M568.9,209.5c-1.4,0.8-3.7,8.2-3.2,8.6c0.5,0.4,4.2-2.8,5.6-4.2c1.4-1.5,1.7-4.3,1.7-4.3
	S570.4,208.7,568.9,209.5z"/>
<path class="st0" d="M576.4,195.3c-1.5,0.6-2.8,7.3-2.8,7.3s0.1,3,1.9,2.3s6.2-8.7,6.2-8.7S577.8,194.7,576.4,195.3z"/>
<path class="st0" d="M581.9,188.4l3.4-8.5c0,0,3.2-2.5,5.4-3.1c2.2-0.6,4.2,2.8,4.2,2.8s1.8,2.7,1.2,4.8s-10,7-11.7,7.2
	S581.9,188.4,581.9,188.4z"/>
<path class="st0" d="M598.1,178.5c0,0-4.1-3.2-4.1-4.5c0-1.3,4.3-7.3,4.3-7.3s7.3-4.1,8.8-4.3s5.6,7.8,5.6,7.8l-1.8,5.2l-7,4.2
	L598.1,178.5z"/>
<path class="st0" d="M616.8,158c0,0-2.8,2.6-3.9,2.6s-1.1-1.3-1.1-1.3s3.5-2.3,4.3-2.5C616.8,156.4,616.8,158,616.8,158z"/>
<polygon class="st0" points="623.5,158.8 615.5,163.7 614.7,171.8 617.2,176.3 625.2,175.7 631.8,164.1 628.2,157.5 "/>
<path class="st0" d="M626.5,155.3c0,0-2.1,1.2-4.1,1.5s0-1.5,0-1.5s1.2-0.7,2.7-1.3C626.5,153.3,626.5,155.3,626.5,155.3z"/>
<path class="st0" d="M633.3,158.3c-2.4,0.9,2.7,5.4,2.7,5.4l8.1,2.3c0,0,3.9-0.5,5-2.4s-3-2.5-3-2.5S635.7,157.4,633.3,158.3z"/>
<path class="st0" d="M638.3,154.2c1.4-0.5,2.8,2.2,2.1,2.9c-0.7,0.8-1.1-0.1-2.9-0.1s-1.5-0.9-1.6-2.1
	C635.9,153.7,636.9,154.7,638.3,154.2z"/>
<path class="st0" d="M646.5,159.2c-0.8,1.3-3-0.1-3-0.1s-1.4-1.2-1.4-2.5s2.2-0.9,2.2-0.9S647.3,157.9,646.5,159.2z"/>
<path class="st0" d="M667.8,159c-1.2,1.6-4.3,1.5-4.3,1.5s-5.5-2.8-5.2-4c0.3-1.2,4.8-1.2,4.8-1.2l3.3,1.3
	C666.4,156.7,669,157.4,667.8,159z"/>
<path class="st0" d="M634.4,167.7c-1.1,0.4-5.9,8.5-6.5,10.5c-0.6,2,2.7,7.7,4.1,8.6c1.3,0.9,6.5,0.1,7.8,0.1c1.4,0,2.8-2.2,2.8-2.2
	l3.6-7.5c0,0,0.6-5.6-0.8-7.6C644,167.7,635.5,167.3,634.4,167.7z"/>
<path class="st0" d="M621.8,186c-1.5,1-9.7,0.1-8.9-1.3s3.4-2.2,3.4-2.2l4.3,0.7C620.6,183.1,623.3,184.9,621.8,186z"/>
<path class="st0" d="M608.1,181.8c0,0,3.1,5,3.1,6.5c-0.1,1.5-10.4,5.3-10.4,5.3s-4.8-2.5-4.8-3.6c0-1.2,3.7-4.5,3.7-4.5l5-2.6
	L608.1,181.8z"/>
<path class="st0" d="M595.4,192.3c0,0,2.3,2.2,2.3,3.4s-12.7,7.2-13.2,7.9s-2.7,6.5-3.9,6.1c-1.2-0.4,1.7-8.8,1.7-8.8l5.2-4.9
	L595.4,192.3z"/>
<path class="st0" d="M658.4,179.7c2.3-0.1-3.4,22.5-6.4,22.5s-8.3-12.4-8.3-12.4s0.1-5,1.7-5.8C646.9,183.3,656,179.8,658.4,179.7z"
	/>
<path class="st0" d="M682.3,169.2c-2.4-0.1-9.9,5.6-11,6.3c-1.1,0.7-2.2,15.5-0.3,15.8c1.9,0.3,6.9-5.8,9.1-5.9
	c2.2-0.1,6.7,4.4,8.8,3.2c2.1-1.2-1.9-10.6-1.9-10.6S684.6,169.3,682.3,169.2z"/>
<path class="st0" d="M677.9,160.8c0,1.8,23.6,4.1,25.6,4.1s4.6-9.9,3.8-11.7c-0.9-1.8-13.3-1.8-14.6-1.8
	C691.4,151.4,677.9,159,677.9,160.8z"/>
<path class="st0" d="M711.8,159.1c0,0-5.3,6.2,1.2,13.5c0,0,1.1,8.3,4.4,7c3.3-1.2,13.3-5.6,14.3-7.5c1-1.9-6.6-10.5-6.6-10.5
	S718.1,154.6,711.8,159.1z"/>
<path class="st0" d="M733.9,153.7c-2.1,0.4-2.4,4.2-2.4,4.2s6.2,11.2,7.1,11.8s8.8-3.3,8.8-5.4s-4.6-8.1-4.6-8.1
	S736,153.3,733.9,153.7z"/>
<path class="st0" d="M741.6,175.2l-0.9,6.7c0,0,1.1,6.3,2,6.3s4-10.1,4-10.1s-1.5-3.7-2.9-4.3C742.4,173.3,741.6,175.2,741.6,175.2z
	"/>
<path class="st0" d="M728.3,178.5c-1.9,0-4.7,2.2-5.6,3.9s-0.2,8.7-0.2,8.7s0.7,3.2,1.7,4.3c1,1.1,7.7,1.1,7.7,1.1s3.3-1,4.4-1.9
	s1.1-2.6,1.1-4.4c0-1.8-6.4-11-6.4-11S730.2,178.5,728.3,178.5z"/>
<path class="st0" d="M711.8,191.2c0,0-1.5,22.8-7.5,26.6c-3.2,2.8,2.6,7.4,5.4,5C709.7,222.8,722.3,201.6,711.8,191.2z"/>
<path class="st0" d="M705.1,178c0,0-1.6,19-10.4,25c2.2,4,7.7,4.1,7.7,4.1S713.3,188.3,705.1,178z"/>
<path class="st0" d="M698.4,182.2c0,0-4.6,2.9-5-0.7s1.3-7.3-3.5-12.2C691.6,167.9,700.5,172.8,698.4,182.2z"/>
<path class="st0" d="M724,200.6c-1.7,0-1.9,21.6-6.5,23.7c0.4,2,1.4,2,1.4,2s17.6-20.5,16.4-23.1C734.2,200.6,725.7,200.6,724,200.6
	z"/>
<path class="st0" d="M732.1,221.1c-4.4,0.4-7.9,5.8-7.9,5.8l-7,11.5c0,0,1.4,5.9,3.7,6.8C723.3,246.1,736.5,232.4,732.1,221.1z"/>
<path class="st0" d="M712.5,238.8c-1.6,0-4.7,3.2-4.7,3.2s-1.9,3.2-1.3,4.9s5.5,6.5,6.6,6.5s5.3-4.2,5.6-5.4
	C718.9,246.8,714,238.8,712.5,238.8z"/>
<path class="st0" d="M696.1,251.4c0,0-5,5-5,6.5c0,1.5,2.3,7,4,7.6c1.7,0.6,6.7-1.7,6.7-1.7s10-7.7,9.2-9.1
	c-0.8-1.3-9.8-4.1-9.8-4.1L696.1,251.4z"/>
<path class="st0" d="M687.6,259.4c1.4,0,4.7,7,4.1,8.6s-6.6,4.4-8.6,4.4c-2.1,0-4.5-6-4.5-7.7C678.6,263,686.3,259.4,687.6,259.4z"
	/>
<path class="st0" d="M673.5,266.9l3.5,1.7c0,0,2.7,2.3,2.7,4.5s-1.2,2.3-1.2,2.3s0.5-1.1-1.4-1.3s-8.7,1.5-9.6-0.3
	c-0.9-1.8,0.5-2.3,1-3.9C668.9,268.4,673.5,266.9,673.5,266.9z"/>
<path class="st0" d="M705.5,228.5l-1.4,6.7c0,0-10.9,7.9-12.7,7.9s-3.3-6.1-3.3-6.1s9.7-10.8,11.9-11.5
	C702.1,224.7,705.5,228.5,705.5,228.5z"/>
<path class="st0" d="M686.2,243.7l-0.8,6.7c0,0-9.7,6.5-11.6,6.6c-1.9,0.1-5.9-5.6-5.4-7.6c0.5-2.1,13.9-9.3,15.6-9.3
	S686.2,243.7,686.2,243.7z"/>
<path class="st0" d="M661.9,250.8c2.5,0,5,7.8,4.8,9.4c-0.2,1.6-12,5.7-12,5.7l-5.8-0.1c0,0-1.9-7.9-2.3-8.8
	c-0.4-0.8,6.2-2.2,6.2-2.2S659.4,250.8,661.9,250.8z"/>
<path class="st0" d="M642.4,259.9c0,0,2.4,7.2,1.4,8.5c-1,1.3-16.2,0.5-17.1-0.3s2-5.6,2-5.6l4.4-2.1L642.4,259.9z"/>
<polygon class="st0" points="622.8,268 604.8,267.7 607.9,263.5 622.1,262.4 "/>
<path class="st0" d="M598.3,264.7c0.6,1.1-0.1,4.2-0.1,4.2s-15.9,1.8-15.4,1.2c0.4-0.6,6.5-5.5,6.5-5.5S597.7,263.6,598.3,264.7z"/>
<path class="st0" d="M576.4,264.5c1.2,0.1,3.1,6.2,3.1,6.2s-20.9,5-22.2,4s-0.7-3.9-0.7-3.9l2.5-3.4l4-1.3
	C563.1,266.1,575.2,264.4,576.4,264.5z"/>
<path class="st0" d="M549.8,269.5c1,0,3.7,2.9,3.7,2.9l0.5,3.2c0,0-15.6,4.7-17.2,4.7s-1.6-4.3-1.6-4.3S548.8,269.5,549.8,269.5z"/>
<path class="st0" d="M530.8,279.3c0.8,1-1.3,4.1-1.3,4.1s-18.1,11.1-18.6,10s2.8-6.8,2.8-6.8l11.2-6.5
	C524.9,280.1,530,278.2,530.8,279.3z"/>
<path class="st0" d="M527.7,271.3c1.4,1.3-9.4,7.1-10.2,6.1c-0.8-1,2.5-6.5,3-7.2C520.9,269.5,526.3,270,527.7,271.3z"/>
<path class="st0" d="M528,257.8c-0.1,0.9-3.8,5.6-5.1,5.5c-1.3-0.1,0.4-3.3,0.1-5C522.6,256.6,528.1,256.9,528,257.8z"/>
<path class="st0" d="M539.8,263.8c-0.3,1.4-2,5.7-3.3,5.9s-13.7-0.8-13.7-2.7s8.6-5,8.6-5S540.1,262.4,539.8,263.8z"/>
<path class="st0" d="M539.4,252.6c0.8,1.5-0.1,6.5-1.4,7c-1.2,0.5-7.4-0.9-7.4-2.4C530.7,255.7,538.7,251.1,539.4,252.6z"/>
<path class="st0" d="M542.9,252.7c-0.7,0.4-1.2,5.3-1.2,5.3s1.3,4.9,2.5,4.8s4.3,0.7,5.6,0.1c1.3-0.6,1.2-9,0.2-9.8
	C548.9,252.3,543.6,252.3,542.9,252.7z"/>
<path class="st0" d="M550,250.3c0.4,0.7,2.5,0.7,2.5,0.7s2.8,4.6,4.4,4.6s1-3.7,1-3.7l-3.3-4.8l-3.1-0.9
	C551.5,246.2,549.6,249.7,550,250.3z"/>
<path class="st0" d="M561.4,253.5l-2.1,4.2c0,0-4.1,0.2-4.5,2.3c-0.4,2.1,0.1,3,1.9,3.1c1.8,0.1,6.8-2.7,7.1-4s-1.3-4-0.5-5
	c0.8-1,2.4,2.3,3,1.8s0.1-4.7,0.1-4.7s-3.3-1.8-4.3-1C561.2,251,561.4,253.5,561.4,253.5z"/>
<path class="st0" d="M572.7,247.5l-2.8,8.5l-2.4,2.3c0,0-0.1,2.1,1,2c1,0,6.2-3.3,6.2-3.3s4.4-11.3,4.1-12.9
	c-0.2-1.7-3.9-0.1-3.9-0.1L572.7,247.5z"/>
<path class="st0" d="M571.1,242.8c0.5,0.9-1.8,4.3-2.7,5.4c-0.8,1.1-8.9-1.3-8.9-2.9s3.7-3.5,5.2-4S570.6,241.9,571.1,242.8z"/>
<path class="st0" d="M561,240.1c0,2-5.6,3.5-6.3,3.4c-0.7-0.1,0.4-3.3,1.1-4.3C556.5,238.2,561,238.1,561,240.1z"/>
<path class="st0" d="M581.3,245.3c0,0,1.6,2.9,3.8,2.4s0.6-1,1.5-1.2s0.9,0.6,1.6,2c0.7,1.4-2.2,3.4-4.2,3.8c-2,0.4-2.1-2.6-2.1-2.6
	s-5.1,5.4-3.3,7.2c1.7,1.8,5.8,1.8,5.8,1.8l6.4-3.9c0,0,1.4-3.9,1.4-5.4s-3.8-7.7-3.8-7.7s-3.7-2.4-5-2c-1.4,0.4-2.6,3.4-2.6,3.4
	L581.3,245.3z"/>
<path class="st0" d="M595,250.8c0,0-2.3,5.8-1.3,7.4c1,1.6,6.9-0.8,6.9-0.8l4.4-1.7c0,0,0-1.4,0-2.5
	C605,252.1,597.9,248.3,595,250.8z"/>
<path class="st0" d="M599.6,246.1c0,0-6.2-1-6.2-2.5c0-1.5,3.5-2.2,3.5-2.2l4,0.6c0,0,2.5,0.8,2,2.4
	C602.3,246.1,599.6,246.1,599.6,246.1z"/>
<path class="st0" d="M573.9,240.9c-0.8-1-10.1-3.4-10.1-3.4s-1-0.8-1-2c0-1.1,1.9-1.6,1.9-1.6s3.9-2.8,5-3.4
	c1.1-0.6,10.5,2.8,10.5,2.8s3.2-1,3.4-1.8c0.1-0.8-0.8-2.3-2-3.5s-5.5-0.2-5.7-1.4c-0.2-1.2,2.7-2.5,2.7-2.5l5.1,2.7
	c0,0,3.8,4.6,3.3,5.9s-2.2,2.2-2.2,2.2l-3.9,4.7L573.9,240.9z"/>
<path class="st0" d="M589.3,238.7l-1.8-3.7c0,0,3-9.6,4.3-10.6c1.4-1,4.1,2.6,4.1,2.6l3,5.9l-0.7,4.3l-4.1,2.7L589.3,238.7z"/>
<polygon class="st0" points="602.9,237.8 602.3,236.4 605.4,234.5 606.4,236.9 "/>
<path class="st0" d="M581.2,224.2l-1.9-0.5c0,0-2.4-3.1-2-3.8s3.2-1.5,3.2-1.5l3.3,0.5c0,0,2,2.1,1.8,3.2
	C585.4,223.2,581.2,224.2,581.2,224.2z"/>
<path class="st0" d="M589.9,222c0,0-6.8-5-7.6-6c-0.8-0.9,0.9-2.9,0.9-2.9l4.2-3.2l2.7,2c0,0,2.7,4.1,2.7,5.5S589.9,222,589.9,222z"
	/>
<path class="st0" d="M595.4,222.1c-1.3,0-1.1-9.6-1.1-9.6s-3.7-5-3.7-6.2s6.4-5.1,6.4-5.1l5.1,2c0,0,3.4,2.6,2.9,4.3
	c-0.6,1.7-6.3,12.3-6.3,12.3S596.7,222.1,595.4,222.1z"/>
<polygon class="st0" points="600.4,225.4 603.9,218.8 604.7,218 609.1,218.9 611.1,221.9 607.3,231.3 602.2,229.8 "/>
<path class="st0" d="M618.6,220.7c-1.2,1.4-10.7-6.1-10.7-6.1l0-1.8c0,0,0.8-1.9,2.3-2.5s6.6,4.5,6.6,4.5S619.7,219.3,618.6,220.7z"
	/>
<path class="st0" d="M609,208.5c-1.9,0.4-4-2.6-3-5.3s4.6,3.1,4.9,1.8c0.3-1.3-2.6-3.4-2.4-5.3c0.3-1.9,3-0.9,3-0.9s1.6,3.5,1.9,5.2
	C613.8,205.8,610.9,208.1,609,208.5z"/>
<path class="st0" d="M622.8,190.3c0,0,1,3.9-0.1,4.6c-1.1,0.8-5.5-1.8-5.5-1.8s-1.4-3.3,0.1-4.2
	C618.8,188.2,622.8,190.3,622.8,190.3z"/>
<path class="st0" d="M625.5,190.4c0,0-2.6,3.2-1.3,4.6c1.2,1.4,8.2,2.2,8.2,2.2l6.1,10.2c0,0,7.4,0.4,7.8-1.1
	c0.4-1.5-4.3-8.1-4.3-8.1s-9.5-3.8-10.7-4.7c-1.2-0.9,0-1.3,0-1.3s-0.6-4-1.7-4C628.4,188.2,625.5,190.4,625.5,190.4z"/>
<path class="st0" d="M624.9,205.9c1.6,1.8-1,2.9-1,2.9s-2.6,2.6-4.3,2.7s-4-2.8-4-2.8s-0.9-3.3,0.1-4.8
	C616.8,202.2,623.3,204.1,624.9,205.9z"/>
<path class="st0" d="M622.3,215.6c-1.1-0.1-0.7,5.7-0.1,6.4c0.6,0.7,3.9-0.8,3.9-0.8s0.8,0,1.1-1.5S623.5,215.7,622.3,215.6z"/>
<path class="st0" d="M630.2,215.8c-1.4,0.5-4.1-0.8-4.4-2.1c-0.4-1.3,1.5-3.1,1.5-3.1s1.5-1.7,3-1.7s4.6,2.3,4,3.4
	C633.8,213.4,631.6,215.3,630.2,215.8z"/>
<path class="st0" d="M631.2,220.9c-1.1,0.3-4.2,3.1-4.2,3.1s-1.3,0-0.6,2c0.7,2.1,3.3,1,3.3,1s5.8-1,5.8-2.3
	S632.4,220.7,631.2,220.9z"/>
<path class="st0" d="M637.6,250.4l-5.4,2.9l-2.1,0l-2.5,1.1c0,0-0.9,1.7,0.8,1.8s10.8-1.8,10.8-1.8l4.5-2.2c0,0,7.1-10.4,7.4-11.6
	c0.3-1.2-0.9-5.3-5.5-1.1C642.7,245.2,637.6,250.4,637.6,250.4z"/>
<polygon class="st0" points="635.9,234.5 633,240.1 622.6,246.6 619.6,244.3 619.6,243.3 622.4,238.2 626.8,236.1 "/>
<path class="st0" d="M642.6,219.6c-1.3,0-1.3-5.7-1.3-5.7s3.6-3.2,5.2-3.7C648.2,209.7,643.9,219.6,642.6,219.6z"/>
<path class="st0" d="M655.7,209.4c0.9-0.1-1.2,5.6-1.2,5.6s0,1.2,1.8,1.2c1.8,0,2.4-5.9,2.4-5.9l-1-2
	C657.6,208.4,654.8,209.5,655.7,209.4z"/>
<path class="st0" d="M653,221.3l-2.8,8.6c0,0-0.5,6.4,1.2,6.3c1.7-0.1,6-13.8,6-13.8s0.4-3.3-0.9-3.4S653,221.3,653,221.3z"/>
<path class="st0" d="M661.5,206.4l-0.3,16.9l1.1,3.2c0,0,3.7,0.9,4.5,0.8s0.8-13.1,0.8-13.1s-2.3-9.5-3.8-9.5
	S661.5,206.4,661.5,206.4z"/>
<path class="st0" d="M653.9,244.8c0,0-1.5,0.7-2.2,1.6c-0.7,0.9,2.1,3.3,2.1,3.3s2.1,0.3,2.1-1.7
	C655.9,246.1,653.9,244.8,653.9,244.8z"/>
<path class="st0" d="M659.7,233.5l-1.6,7.2c0,0,1.3,3.8,3.5,3.5c2.2-0.4,3.6-2.9,3.6-2.9l1.4-7.5c0,0-0.7-3-1.9-3.7
	C663.6,229.3,659.7,233.5,659.7,233.5z"/>
<path class="st0" d="M675.5,217.6c-1.7,1.3,1.5,17.7,2,16.4c-0.3,0.6-2.2,1.7-1.2,2.8s10.7-5.4,10.7-5.4s7.4-10.2,7.3-11.6
	C694.2,218.4,677.3,216.3,675.5,217.6z"/>
<path class="st0" d="M674.7,213.1c0,1.3,5.6,3.2,5.6,3.2l5.9-2.1c0,0,11.2,0.8,11.9-0.7c0.6-1.4-4.3-5.1-6-5.6
	c-1.7-0.6-13.3,1.9-13.3,1.9S674.7,211.8,674.7,213.1z"/>
<path class="st0" d="M496.5,293.2c-0.4,1.4-4.6,11.2-4.1,11.2s1.9,0,1.9,0l2.8-2.7c0,0,1.5-6.9,1.4-8.5
	C498.4,291.6,496.5,293.2,496.5,293.2z"/>
<path class="st0" d="M498.6,287.5c0,0-1,2.8-2.1,2.8s-1.5-2.9-1.5-2.9s0.4-1.2,1.6-1.6C497.8,285.4,498.6,287.5,498.6,287.5z"/>
<path class="st0" d="M491.3,306.6c0-2.1-3.7-3.9-3.7-3.9l-7.7-2.4c0,0-1.8-5.1-2.6-5.7c-0.8-0.6-8.9,5-8.9,5s-4.3,10-4.3,11.8
	c0,1.8,4,3.6,4,3.6s4.7,2.3,5.6,2.3C474.7,317.3,491.3,308.7,491.3,306.6z"/>
<path class="st0" d="M477.5,322.6c0,1.5-2.3,4.6-2.3,4.6s-3.4,1.3-3.8-0.1s-1-5,0.1-5.8C472.6,320.6,477.5,321.1,477.5,322.6z"/>
<path class="st0" d="M457.4,340.4c-0.7,1.2-3.8,6.1-3.8,6.9c0,0.8,1.5,3,3.6,3c2.1,0,4.2-1.5,4.2-1.5s5.7-8.1,5.7-9.5
	S458.2,339.2,457.4,340.4z"/>
<path class="st0" d="M800.8,239.1c-1.6,1.4-3.2,21.7-1.8,23.1s7.7,2.8,9.4,1.6s2.5-23,1.7-24.5S802.4,237.8,800.8,239.1z"/>
<path class="st0" d="M797.3,266.1c-2,0.8-6.7,14.1-5.8,15.6c1,1.5,7,3.9,9.5,3.9s8.3-14.7,6.7-17.4
	C806,265.6,799.2,265.3,797.3,266.1z"/>
<path class="st0" d="M789.9,286.3c-1.5,0.4-9.2,11.4-9.2,14c0,2.7,2.1,4.6,4.4,3.7c2.2-0.9,9.8-9.7,10.9-13c1.1-3.3-1.2-4-2.8-4.7
	C791.5,285.7,791.4,286,789.9,286.3z"/>
<path class="st0" d="M775.3,305.5c-1.7-1-13.6,12.2-11.4,13.2c2.2,1,14.6-6.6,15.2-9.3C779.8,306.6,777,306.5,775.3,305.5z"/>
<path class="st0" d="M788.1,308c-2.1-0.9-10.3,5.9-10.3,8c0,2.2,1.1,3,1.1,3l7.6-1.8c0,0,3.7-1.9,4.3-3.3S790.2,308.9,788.1,308z"/>
<path class="st0" d="M771.4,322.4c0-1.8-5.1,0.7-6.4,1.7c-1.2,0.9-5.6,4.1-5.2,5.1C760.1,330.2,771.4,324.3,771.4,322.4z"/>
<path class="st0" d="M754.9,214.8c-2.4,0,0.1-5.1,0.1-5.1s1-0.9,2.5,0c1.5,1-0.1,5.1-0.1,5.1S757.3,214.8,754.9,214.8z"/>
<path class="st0" d="M760.6,210.7c-0.5,1.4,1.3,3.5,1.3,3.5s6.1,1.1,7.5,0.9s3.1-3.2,3.1-3.2S761.1,209.4,760.6,210.7z"/>
<path class="st0" d="M759,216.3c0,0.5-4.2,11.4-2.5,11.8c1.7,0.4,9.3-10.4,10-11.7c0.7-1.3-6-1.5-6-1.5L759,216.3z"/>
<path class="st0" d="M740.7,221.2c-1.7-0.1-5.7,9.2-5,10.2c0.7,1,7.8-0.9,7.8-0.9s3.3-0.5,3.3-2S742.4,221.2,740.7,221.2z"/>
<path class="st0" d="M773.5,217c-0.9,0-12.3,10.6-12.7,11.7c-0.3,1.2,2.6,1.1,2.6,1.1l11.1-4.2c0,0,4.1-1.5,4.8-2.8
	C780.1,221.5,774.4,217,773.5,217z"/>
<path class="st0" d="M761.1,238.9c-0.2-0.6-10.5-5.3-10.5-5.3l-12.5,0.7l-3.9,2.8c0,0-1.1,1.1-1.5,2c-0.4,0.9,9.2,5.7,10.5,5.7
	c1.3,0-0.2-2.5-0.2-3.7s7.4-3.1,7.4-3.1s9.4,3.3,10.1,3.4C761.3,241.6,761.1,238.9,761.1,238.9z"/>
<path class="st0" d="M763.2,236.2c-1.1-0.4-0.9-2.5,0.6-3.5c1.5-1,2.4-0.8,2.4-0.8l12-3.4c0,0,4.6,0,5.8,0.7s0.9,2.8-0.1,3.4
	c-1,0.6-9.7-0.9-11.7-0.6C770.1,232.4,764.3,236.7,763.2,236.2z"/>
<path class="st0" d="M758.7,245.2c-0.3,0.2-0.6,5.4-0.6,5.4s-1.3,3.7-2.1,3.7s-5.4-4.7-5.4-4.7s-0.7-3.9,0.1-4.9
	S758.7,245.2,758.7,245.2z"/>
<path class="st0" d="M762.1,251.8l3.1-12.8l3.7-2.7l7.5-0.5c0,0,9.1,0.1,9.9,1.8c0.8,1.7-0.1,7.3-0.1,7.3s0.5,12.4-1.3,12.5
	c-1.8,0.2-7.4-2-7.4-2l-2.1-4.6l0.8-3.6c0,0-1.4-3.6-2-3.9c-0.6-0.3-3.9,1.7-3.5,2.8c0.4,1.1,3.8,7.4,2.8,8.4c-1,1-5.7,3.5-5.7,3.5
	l-4.3-0.9L762.1,251.8z"/>
<path class="st0" d="M775.5,258.3L770,261c0,0-1.4,1.4-0.6,2.8c0.7,1.5,12.9,4,15.1,4s1.9-5.7,1.4-7.6S775.5,258.3,775.5,258.3z"/>
<path class="st0" d="M761.9,259.8c-1.9,0.1-4.1,3-4.1,3s0.5,1.8,0.4,2.6s-3.1,0.8-3.1,1.9s4.3,6.8,5.8,6.7c1.5-0.1,4-9.5,4-9.5
	S763.8,259.7,761.9,259.8z"/>
<path class="st0" d="M756.6,258.6c0.8,1.4-3.2,7.4-3.2,7.4l-3.1,2.5c0,0-11.8-4.5-13.3-5.2s3.4-1.6,4.7-3.2c1.4-1.6,0.3-5.4,2.1-6
	C745.5,253.4,755.8,257.2,756.6,258.6z"/>
<path class="st0" d="M741.5,251.4c-0.5,0.6-0.4,6.1-2.4,6.1c-1.9,0-4-0.5-4-0.5s-7.7-11-6.9-12.5c0.8-1.5,11.5,3.6,11.5,3.6
	L741.5,251.4z"/>
<path class="st0" d="M730.9,253.8c0,0,2.5,5.6,1.5,7.2c-1.1,1.6-3.6,2.8-3.6,2.8s-21.2,2.9-21.2,1.1c0-1.8,15.6-15.4,17.1-15.4
	S730.9,253.8,730.9,253.8z"/>
<path class="st0" d="M782,273.2l-0.9,5.7c0,0-3,2.3-3.9,1.9s-2.2-3.9-2.2-3.9s0.9-2.8,0.1-3.8c-0.8-1-2.8-0.6-2.8-0.6
	s-2.2,4.1-2.2,6c0,1.9,1.9,5.4,3.3,5.4s6-2.4,6.2-0.7c0.2,1.8-6.1,14.6-7.8,14.6c-1.7,0-2-4.3-2-4.3l-4.5-16.5c0,0,0.3-7.6,1.8-8.9
	c1.6-1.2,4.4-2.1,4.4-2.1s6.2,0.3,7.7,1.7C780.7,269.1,782,273.2,782,273.2z"/>
<path class="st0" d="M730,277.7c-4.9-1.8-11.8-7.2-12.5-7.9s-0.8-2.1-0.8-2.1s1-1.4,2.2-1.8c1.2-0.4,10.9,1,11.9,2.1
	C731.9,269.1,735.9,276.1,730,277.7z"/>
<path class="st0" d="M755.3,275.9c-0.8,0.9-5.7,0.8-5.7,0.8s-0.2,1.1-1.5,1.3c-1.3,0.2-2.3-1.4-2.3-1.4s-0.6-5.1,0.1-5.8
	s7.8,0.5,8.2,1.1C754.5,272.5,756.2,275,755.3,275.9z"/>
<path class="st0" d="M734.2,282.3c-1.3-0.4-1.7-0.8-1.6-2.4c0.1-1.7,3.1-2.2,3.6-2.7c0.5-0.5,0.6-3.8,0.6-5s-4.4-6.2-3.4-7
	c1-0.8,7.8,3.5,7.8,3.5s2.8,1.8,2.1,3.4c-0.7,1.6-5.4,2-5.3,3.5c0,1.5,0.7,2.9,0.4,3.8C738,280.3,735.5,282.8,734.2,282.3z"/>
<path class="st0" d="M755.9,292.3c-0.8,0.6-4.7-3.6-4.7-3.6s-1.2-5.5-0.7-7.2c0.5-1.7,8.6-3.3,8.6-3.3l3.7,3.5l1.8,3.2l2.2,8.5
	c0,0,1.9,4.9,1.9,6.3s-2.9,7.4-4.5,7.8c-1.7,0.4-5.1-4.3-5.3-6.1c-0.2-1.8,3.4-9.9,3.3-12c-0.1-2.1-0.3-2.8-1.9-3.6
	c-1.6-0.8-3.4,2-3.4,2S756.7,291.8,755.9,292.3z"/>
<path class="st0" d="M756.3,303l3.8,7.7l-8.8,4.2c0,0-7.3-1.5-12.3-11c1.9-2.1,5.6-2.7,5.6-2.7l7.1,4L756.3,303z"/>
<path class="st0" d="M756.5,297.9c0,1.6-4.7,4.2-6.4,4.2c-1.7,0-4.6-6.8-4.6-6.8s0.7-11.4,1.8-11.4s0.4,4.3,0.6,5.5
	c0.2,1.2,3.9,5,3.9,5S756.5,296.3,756.5,297.9z"/>
<path class="st0" d="M743.1,283.3c1.1,0.7-1.6,15.7-1.6,15.7l-1.7,1l-5.9-1c0,0-2.6-3-2.6-4.9s1-6.6,2.9-7.5S742,282.7,743.1,283.3z
	"/>
<path class="st0" d="M754.5,319.6c0.7,1.2-2.2,3.7-2.2,3.7l-1.8,2.2c0,0-5.4,1.3-6.2-0.1c-0.9-1.4,2-5.3,2-5.3l3-1.7
	C749.3,318.4,753.8,318.4,754.5,319.6z"/>
<path class="st0" d="M743.6,317.2l-1.3,6.7c0,0-1.7,2-3,2s-3.5-1.2-3.5-1.2l-1.4-3.9l0.1-6.3c0,0,1.9-2.8,4.4-3
	C741.5,311.4,743.6,317.2,743.6,317.2z"/>
<path class="st0" d="M735.5,306l-1.4,3.9c0,0-1.8,1.3-3.6,1.5c-1.9,0.2-1.9-3.8-1.9-3.8l2.9-4.6c0,0,1.1-1,2.3-1.2
	C735.1,301.7,735.5,306,735.5,306z"/>
<path class="st0" d="M727.3,294c1.3,0.7,2.9,5.8,2.9,5.8l-3.7,7.7c0,0-3.6,1.9-4.4,1.9s2.2-14,2.2-14S725.9,293.4,727.3,294z"/>
<path class="st0" d="M721.1,275.2c0.9-0.8,3,1,3,1l2.4,6l-2.2,7.9l-7.5,4.5c0,0-8-1.8-7.8-2.8c0.2-1,10.6-5.2,11.3-5.7
	c0.7-0.5,1.6-4.4,2.3-5.9S720.2,276.1,721.1,275.2z"/>
<path class="st0" d="M718.9,279.3c1.2,0-1,4.1-1,4.1s-4.8,4.3-6.2,4.3c-1.3,0-2.5-3.8-2.5-3.8s-0.3-2.4,1.2-3.2
	C711.9,279.9,717.7,279.3,718.9,279.3z"/>
<path class="st0" d="M715,273.1c0-1.1-8.1-4.1-9-4.4s-7.5,4.5-7.5,4.5l-2.1,9.3l-1.4,11c0,0,3.2,7.2,4.1,7.8
	c0.9,0.5,3.1,0.1,3.1,0.1s4.1-11.1,4.9-13s-1.2-2-2.1-3.5c-0.9-1.5,2.7-7.1,3.5-8c0.7-0.8,4.7-0.7,4.7-0.7S715,274.2,715,273.1z"/>
<path class="st0" d="M696,272c0.1,1.8-4.7,16-4.7,16l-1.4,0.7c0,0-2-2.3-2-4.3c0-2,5.9-12.4,5.9-12.4S696,270.2,696,272z"/>
<path class="st0" d="M686.4,278.2c1.2,1.1-1.7,9.6-3.4,10.3c-1.7,0.7-4,0.6-4.8-0.1c-0.8-0.7,1-11.7,2.9-11.7
	S685.2,277.2,686.4,278.2z"/>
<path class="st0" d="M716.7,298.9c1,1.1-2.3,6.5-2.3,6.5l-2.7,1.9l-5,0.6c0,0-2.6-4.6-2.6-5.8s3.5-3.5,3.5-3.5
	S715.7,297.8,716.7,298.9z"/>
<path class="st0" d="M727.9,312.7c2.2,0,4.6,5.7,4,7.4c-0.6,1.8-8.7,4.8-8.7,4.8l-5.1-0.1l-3.2-3.6l1-5.2c0,0,3.1-2.4,4.6-2.5
	c1.5-0.1,1.8,2.6,3.5,2C725.5,315,725.7,312.7,727.9,312.7z"/>
<path class="st0" d="M711.9,313.4l-0.8,4.3c0,0-2.7,2-3.2,2s-3.6-0.9-4.2-2.2s2.8-5.7,2.8-5.7s1.8-1.5,3.6-1.5
	S711.9,313.4,711.9,313.4z"/>
<path class="st0" d="M705.2,308.7c0,1.6-2.1,3.6-2.1,3.6l-3.8,2c0,0-4-3-5.6-3c-1.6,0-2.6,1.7-3.6,1.5c-0.9-0.1-1.7-2.3-1.7-2.3
	l1.8-2.1c0,0,6-4.4,7.4-4.4S705.2,307.1,705.2,308.7z"/>
<path class="st0" d="M687.5,307.6c0,1.6-3.8,4.1-5.2,4.3c-1.4,0.2-4.1-1.5-6.2-1.5c-2.1-0.1-4.5,4-5.7,3.9c-1.3-0.1,0.8-6.4,0.8-6.4
	l3.5-4.2l4.4-1.9l6.8,3.4C685.9,305.2,687.5,306,687.5,307.6z"/>
<path class="st0" d="M690.2,303c0,0-13.6-3.2-14.8-4.2c-1.2-1.1,1.7-6.1,3.1-7.1s10.1-0.8,11.2-0.2c1,0.6,4.2,8.1,3.5,9.6
	S690.2,303,690.2,303z"/>
<path class="st0" d="M673.8,284.4c1.2,1.3-3.8,14.3-3.8,14.3s-1.8,3.4-3.2,3.9c-1.4,0.4-7.2-1.3-7.6-3.1s6.3-17,7.1-17.7
	S672.6,283.1,673.8,284.4z"/>
<path class="st0" d="M749.2,330.1c1.2,1.4-2.8,8.3-2.8,8.3l-7.1,9.7c0,0-7.2,10.2-9.2,10.6c-2,0.4-4.9-2.1-4.9-2.1s-4.3-7.7-4.3-9.4
	s8.7-12.7,8.7-12.7s0.8-1.6,2.8-1.7c2-0.1,3.9,3.9,5.4,4.9s0.8-2.2,1.1-3.7C739,332.2,748,328.7,749.2,330.1z"/>
<path class="st0" d="M725.5,333.9c-0.6,2-8.9,12.3-8.9,12.3s-3.3,4.2-5.4,3.5s-2-20-1.4-21.4C710.5,326.8,726.1,331.8,725.5,333.9z"
	/>
<path class="st0" d="M704.8,328.6c0,0,3.3,8.3,2.6,9.3c-0.7,1-2.8,0.5-2.8,0.5l-5.1-3l-4.5-8.8l2.7-2.8c0,0,4.2-0.4,5.1-0.4
	C703.8,323.5,704.8,328.6,704.8,328.6z"/>
<path class="st0" d="M696.1,320c0,0.9-1.7,5.1-1.7,5.1l-6.3,2.8l-4.2-1c0,0-2.9-7.2-2.9-8.2c0-1,2.3-1,2.3-1s1.4,3.7,2.3,4.4
	c0.9,0.7,2.9-0.1,2.9-1.2c0-1.1-2-1.3-1.9-3.1C686.6,315.9,696.1,319,696.1,320z"/>
<polygon class="st0" points="678.7,323.5 681.3,331.9 677.2,335.9 670,334.2 671,327 672.6,322.9 "/>
<path class="st0" d="M664.1,307.1c1.5,2.4-1.6,7-1.6,7s-6.1,8.2-7.3,8.1c-1.2-0.2-6.2-4-6.2-5.7c0-1.7,6.8-10.3,6.8-11.4
	c0.1-1.1-4-2.7-2-3.9S662.7,304.8,664.1,307.1z"/>
<path class="st0" d="M706.7,342.5c0,0-2,16.5-3.7,16.5c-1.8,0-4.8-1.6-4.8-1.6s2-16,4.4-16S706.7,342.5,706.7,342.5z"/>
<path class="st0" d="M692.5,341.2c0.9,0.2,0.2,12-1,11.8c-1.2-0.1-3.5-5.3-3.5-5.3l0.7-4.4C688.7,343.4,691.6,341,692.5,341.2z"/>
<path class="st0" d="M709.9,354.6c0,0-4.8,13.5-4.7,15.5c0,2.1,5,5,5,5l3.5,0.5c0,0,13.4-11.2,13.4-13.1s-7.9-12.1-9.8-12.1
	C715.5,350.5,709.9,354.6,709.9,354.6z"/>
<path class="st0" d="M709.8,378.5c-0.9,1.2-14.4,13.6-16,10.8s7.5-12.9,8.9-14.7C704.1,372.8,710.7,377.3,709.8,378.5z"/>
<path class="st0" d="M702.2,362.8c-0.2,1.2-6.3,18.3-8.8,18c-2.5-0.3-6.4-14.2-7-15.5c-0.6-1.3,9.2-5.2,10.4-5.2
	S702.4,361.6,702.2,362.8z"/>
<path class="st0" d="M681,346.9c1.2,0,7.1,7.6,6.8,9.5s-3.4,3.2-4.9,3.4c-1.5,0.3-9.6-3.5-10.8-4s1.6-5.2,1.6-5.2
	S679.8,346.9,681,346.9z"/>
<path class="st0" d="M671.6,358.4c0,0.9,1.8,2.7,1.8,2.7s2.3,0.2,2.3-1.3s-1.2-2.2-1.2-2.2S671.6,357.5,671.6,358.4z"/>
<path class="st0" d="M670.2,353.8c-0.2,1.3-2.4,3.6-2.4,3.6s-0.6,0.9-1.8,0.9s-6.6-9.5-6.6-10.6s4-1.4,4-1.4s1.8,4.9,2.7,5.4
	C667.1,352.2,670.4,352.5,670.2,353.8z"/>
<path class="st0" d="M654,337.9c0.7,0.5-2.7,5.9-2.7,5.9s-2.5,2.2-3.5,2.2c-1,0-1.3-2.9-1.3-2.9l3.8-5.7
	C650.3,337.3,653.3,337.4,654,337.9z"/>
<path class="st0" d="M652.6,326.3c0,1-2.2,4.9-2.2,4.9l-5.4,4.1l-6.7,4.9c0,0-4.7-5.3-4.7-6.5s7.9-7.6,7.9-7.6s2.5-7.5,4.5-7.6
	S652.6,325.3,652.6,326.3z"/>
<path class="st0" d="M628.2,337.4c1.7-0.1,5.5,7.4,5.2,8.3c-0.3,0.9-22.9,11.1-23.7,9.9c-0.8-1.2,14.3-13.5,14.3-13.5
	S626.5,337.5,628.2,337.4z"/>
<path class="st0" d="M640,346.2c-1.3,0.4-7.8,11.6-6.9,12.4c1,0.8,2.9-0.5,4.4-2.4S641.3,345.8,640,346.2z"/>
<path class="st0" d="M644.5,349.8c-1.4,0-4.8,10.2-4.8,10.2s-0.6,1.1,0.9,1.7c1.5,0.5,2.7-1.8,2.7-1.8l3-9.3
	C646.3,350.5,645.9,349.8,644.5,349.8z"/>
<path class="st0" d="M649.2,352.3c-0.9,0.2-3.1,8.3-3.1,8.3l1.4,2c0,0,0.5,1.6,2.7,0.1s2.4-9.9,2.4-9.9S650.1,352.1,649.2,352.3z"/>
<path class="st0" d="M657.1,353.6c-1.5,0-0.5,4.6-0.5,4.6s-0.2,3.2,2.1,3.2s3.8-2.3,3.8-2.3S658.6,353.6,657.1,353.6z"/>
<path class="st0" d="M684,389.5c0,0,1.9,1.4,1.8,2.7c-0.2,1.3-3.6,1.3-3.6,1.3s-1.2-0.8-0.9-2.5C681.7,389.3,684,389.5,684,389.5z"
	/>
<path class="st0" d="M680.9,386.3c-1.1,0.1-6.8-16.4-5.4-18s9,1.3,9,1.3s3.9,6.7,2.9,6.7c-1,0-1.2-1.4-2.5-1.2
	c-1.3,0.3,2.2,5.1,2.5,6.1c0.3,1-1.4,1.8-1.4,1.8l-2.6-2.3c0,0-1.2-0.8-1.8,1C680.9,383.4,682,386.2,680.9,386.3z"/>
<path class="st0" d="M674.3,366.5c0,0-0.1,5.1-1.6,6.1s-14.8-1.2-14.8-1.2s-0.4-5,0.1-6.7s3.9,3.1,5.2,1.1s-1.7-0.4-0.9-3.1
	S674.3,366.5,674.3,366.5z"/>
<path class="st0" d="M674.1,378.8c0,0,4.6,5.9,3.8,6.7c-0.9,0.9-12.8-4.2-12.8-4.2s-3.7-4.6-2.9-6
	C663,373.9,674.1,378.8,674.1,378.8z"/>
<path class="st0" d="M677.2,390.8l2.2,3.8l-1.9,3.2c0,0-17.2,10.9-19,10.1c-1.8-0.8,2.5-16.8,2.5-16.8s4.6-3.1,6-3.1
	S677.2,390.8,677.2,390.8z"/>
<path class="st0" d="M664.7,385.3c0,0-3.6,3.7-5.8,3.3c-2.2-0.4-7.1-14.2-5.1-14.9C655.9,372.9,664.7,385.3,664.7,385.3z"/>
<path class="st0" d="M650.5,371.5l-0.9,2.9c0,0-4.2,2.9-5.2,2.9c-1,0-1.2-2.3-1.2-2.3l2.3-2.2l-2.2-3.2c0,0,4-2.4,5.2-2.4
	S650.5,371.5,650.5,371.5z"/>
<path class="st0" d="M650.3,379.7c2.2,0.2,3.3,7.3,3.3,7.3s2.1,2.4,1.3,4.1c-0.8,1.6-10.7,1.1-12.6,1.1s0.2-10,0.2-10
	S648.1,379.4,650.3,379.7z"/>
<path class="st0" d="M655.9,394.8c1.9,1-0.1,7.1-0.1,7.1s-5.3,6.5-6.8,6.5s-1.6-3.2-1.6-3.2s2.1-2.3,1.7-3.7
	c-0.4-1.3-2.1,1.3-3.7,1.2s-3.1-5.6-2-6.8C644.3,394.8,654,393.8,655.9,394.8z"/>
<path class="st0" d="M647.5,410.2c-0.7-1.8-4.4-3.1-5.8-3.1s-5.3,2.9-5.3,2.9s-0.6,6.4,0.6,6.9c1.2,0.5,3.2,0.1,3.2,0.1l6.7-4
	C646.7,412.9,648.1,412,647.5,410.2z"/>
<path class="st0" d="M640.2,403c-1,1.5-6.4,4-6.4,4l-4.2-2.1c0,0,6.8-20.1,8.4-20.1c1.6,0,2.4,5.1,2.4,5.1S641.2,401.5,640.2,403z"
	/>
<path class="st0" d="M639.6,368.7c0.6,1.5-4.9,13.3-4.9,13.3s-2.5-0.4-3.3-1.3c-0.8-0.9,4.9-13.2,4.9-13.2S638.9,367.2,639.6,368.7z
	"/>
<polygon class="st0" points="631.8,388.1 628.8,397.3 625.4,398.8 623,394.9 628.2,386.1 "/>
<path class="st0" d="M624.8,402.3c0,1.4-4.4,7.9-4.4,7.9s-5.2,5.1-7.1,5.5c-1.8,0.3-3.7-2.7-3.7-2.7l1.5-6l3.4-3.1l6.1-3.6
	C620.6,400.2,624.8,401,624.8,402.3z"/>
<path class="st0" d="M625.4,407.9l-5.1,7.5c0,0-12.5,5.2-11.9,7.3c0.6,2.1,13.1-0.7,13.1-0.7l6.4-1.1l6.7-4.2l-0.7-4.9
	c0,0-0.8-2.5-1.8-3.6C631.3,407.1,625.4,407.9,625.4,407.9z"/>
<path class="st0" d="M609.6,417.2c0,1.3-9.1,4.8-9.1,4.8s-17.6-0.3-17.6-1.9c0-1.6,8.6-1.2,10.2-1.4c1.6-0.2,3.4-2.8,6.2-3.7
	C602.1,414.1,609.6,415.9,609.6,417.2z"/>
<path class="st0" d="M633.1,363c0,1.5-5.9,15.4-7.8,15.4s-4.1-3.5-4.1-4.9s9.3-11.3,9.3-11.3S633.1,361.6,633.1,363z"/>
<path class="st0" d="M623.2,383.4c-1.1,0-5.8,10.7-5.8,10.7l-5.8,2.9l-3.5-5.5l5.4-8.8l6.2-3.1L623.2,383.4z"/>
<path class="st0" d="M609.8,401.8c-0.3,1.8-4.2,3.8-4.2,3.8s-9.7,6.4-12,6.8s-5.1-5.1-5.5-8.1c-0.4-3,14.6-11.1,16.7-11.5
	S610.1,400.1,609.8,401.8z"/>
<path class="st0" d="M584.2,406c0,0,6.1,5.6,5.7,6.4c-0.4,0.8,0.3,3.4-2,4c-2.3,0.6-16.4,2.1-17.4,1.2c-1-0.9-1.8-5.8-1.5-7.4
	c0.4-1.7,3.6,2,3.6,2s4.5-0.9,4.6-2.1s-1.1-1.5-0.5-3c0.6-1.4,4.2-2.5,4.2-2.5L584.2,406z"/>
<path class="st0" d="M563.5,409.5c0,0,5.2,6.5,3.7,7.4c-1.4,0.9-11.3-3.9-11.3-3.9s-9.7-5.7-9.6-6.6s13.1,2.2,13.1,2.2L563.5,409.5z
	"/>
<path class="st0" d="M564,405.6c-0.9-0.2-16.9-5.2-16.9-5.2s-1.5-3-1.5-4.1c0-1.1,4.3-2.8,4.3-2.8l8.9,0.2l6.9,2.4l3.6,2.5
	c0,0,3.1,3.1,2.5,4.5C571.3,404.5,564,405.6,564,405.6z"/>
<path class="st0" d="M627.3,356c0,0-11.5,15.4-12.1,15.6c-0.6,0.2-3.6,3.8-4.9,3.3c-1.2-0.4-5.1-8.6-5.1-10.3s19.1-11.7,20.4-11.7
	S627.3,356,627.3,356z"/>
<path class="st0" d="M606.9,357.2c0,0-3.8,2.5-4.7,2.5c-0.9,0-0.9-1.4-0.9-1.4s3.6-3.5,4.8-2.8C607.4,356.3,606.9,357.2,606.9,357.2
	z"/>
<path class="st0" d="M608.3,380.2c0,0-5.8,7.1-6,7.3s-8.4,5.1-8.4,5.1l-1.5-0.8l-2.1-2l2.1-4.4l3.1-2.1L608.3,380.2z"/>
<path class="st0" d="M591.3,375.1c0,0-7.1,4-8.5,4.6c-1.5,0.6-4.3-1.1-4.3-1.1s-1.1-1.7-1.1-3.4s2.2-0.1,2.8-1.6
	c0.6-1.5-2-2.8-1.8-4.4s10.6-2,11.8-1.2c1.2,0.8,1.2,3,1.2,3L591.3,375.1z"/>
<path class="st0" d="M584.9,385.3l4,7.3c0,0,1,3.6-0.1,4c-1.1,0.4-3.5-0.1-3.5-0.1l-1.4,1.5c0,0-6.5,4.2-7.8,4.2s-6.6-11.5-6.6-11.5
	s1.9-6.3,2.8-7.9C573,381.2,584.9,385.3,584.9,385.3z"/>
<path class="st0" d="M569.6,384.4c0.9,1.3-2.1,8.3-3.7,8.7s-6.2-4.7-6.9-6c-0.7-1.2,0.6-5.7,1.7-7.2
	C561.7,378.4,568.7,383.2,569.6,384.4z"/>
<path class="st0" d="M573.9,370.8c0.8,1.4,0.1,6.6-1.6,7.4c-1.7,0.8-17.1-4.7-18.3-5s1.5-1.4,1.5-1.4S573.1,369.4,573.9,370.8z"/>
<path class="st0" d="M541.7,373.1c0,1.2-6.7,10.3-8,10.3s-7.9-0.9-10-2.4c-2.1-1.4-4.1-10.8-4.1-12.1
	C519.7,367.7,541.7,371.9,541.7,373.1z"/>
<path class="st0" d="M531.8,387.9c1.1,1.2-0.5,7.9-2.4,7.9c-2,0-9.8-0.1-11.6-1.8c-1.8-1.7,3.8-9.1,5.4-9.6
	C524.8,384,530.8,386.7,531.8,387.9z"/>
<path class="st0" d="M505.4,386.3c0,1.9-0.8,7.1-2.3,7.1c-1.5,0.1-10.6-1-10.6-1s-16-2.8-16-4.4s2.5-5.7,2.5-5.7l2.7-1.9l12,0.8
	C493.6,381.2,505.4,384.3,505.4,386.3z"/>
<path class="st0" d="M498.4,365.9c-0.5,1.6-6,7.6-7.2,7.6c-1.2,0-3.9-3.8-3.9-6.1s1.3-3.9,1.3-3.9s2.7-2.8,3.8-2
	C493.5,362.4,498.8,364.4,498.4,365.9z"/>
<path class="st0" d="M481.5,366.5c0,0,6.3,7.9,5.6,9.5c-0.6,1.5-2.9,1.5-2.9,1.5s-11.8-3.8-11.8-5s-0.5-7.3,1.9-7.3
	C476.5,365.2,481.5,366.5,481.5,366.5z"/>
<path class="st0" d="M472.2,377.9l2.4,4.4l-1.3,2.5l-2,0.6l-8.5-7.2l-6.1-5.9c0,0-2.3-11.4-1.4-11.4s6.4,10.4,6.6,10.9
	S472.2,377.9,472.2,377.9z"/>
<path class="st0" d="M471.8,363.1l-1.7,5.7c0,0-2.1,0.8-2.5,0.8c-0.5-0.1-2.9-2.5-2.9-2.5s-5.9-7.9-5.9-9.4c0-1.5,8.7-0.9,9.9,0.2
	C470,358.9,471.8,363.1,471.8,363.1z"/>
<path class="st0" d="M472.6,357.9c0,1.2,2.4,4.3,2.4,4.3s6.3,1.8,7.8,1.8s2.5-1.7,2.6-2.9C485.6,359.9,472.6,356.7,472.6,357.9z"/>
<polygon class="st0" points="471,349.4 477.3,333.8 484.6,318.9 501.2,306.4 521.1,293.6 546.9,282.6 566,278.3 585.4,276.3 
	607,274.8 630.8,274.4 649.2,274.8 651.4,279.1 650.1,289.9 645.8,300.4 639.9,315 631.8,327.7 616.6,342.9 605.6,351.1 
	589.3,359.4 568.9,366.2 546.3,369.5 526.3,366.9 504.4,361.5 482,355.9 471.6,352.3 "/>
<path class="st0" d="M438.8,262.4c-1.4,0.5-4.8-5.1-9.2-3.2c-1.8-4.7,3.2-7.5,4.5-7.1C435.4,252.5,440.2,261.9,438.8,262.4z"/>
<path class="st0" d="M437.9,239.8c-0.9,0.4,0,9.5,0,9.5s1,3.8,2.8,3.8c1.9,0,7.2-2.5,6.5-3.8C446.5,248,438.8,239.4,437.9,239.8z"/>
<path class="st0" d="M438.8,231.1c-1.3,0.5-6,2.7-6.9,2.7c-1,0,0-3.8,0-3.8s3.7-5.4,4.9-5.4c1.1,0,3.4-0.4,4,0
	C441.3,225,440.2,230.6,438.8,231.1z"/>
<path class="st0" d="M440.7,219.3c-0.9,0.6-10.8,3-11.2,2c-0.3-1,2.2-3.7,2.3-4.5c0.1-0.9,8.2-4.8,8.8-4.8S441.6,218.7,440.7,219.3z
	"/>
<path class="st0" d="M436.1,205.3c0.2,1.2-5.2,9.3-6.5,9.3c-1.3,0-2-3.4-1.3-4.7c0.7-1.2,3.1-7.1,3.9-7.1
	C433,202.9,435.8,204.2,436.1,205.3z"/>
<path class="st0" d="M453.6,242.1c0,0,0,1.2,0.5,2.7"/>
<path class="st0" d="M462.2,234.1c0,0-8.3,0.3-8.6,8.3"/>
<path class="st0" d="M461.9,234.1c0,0,7,0.2,8.4,6.4c0,0.2,0.1,0.3,0.1,0.5"/>
<path class="st0" d="M476.1,223.1c0,0,0.2,4.9,3.9,7.3c0.2,0.1,0.4,0.2,0.6,0.3"/>
<path class="st0" d="M484.7,215.1c0,0-8.3,0.3-8.6,8.3"/>
<path class="st0" d="M491.8,225.1c-0.2,1.1-1.5,2.9-1.7,3.6"/>
<path class="st0" d="M484.4,215.1c0,0,5.2,0.2,7.5,4.1"/>
<path class="st0" d="M567.6,191c1.2,0.9,2.7,1.5,4.8,1.5"/>
<path class="st0" d="M572.8,175.9c0,0-3.9,0.1-6.5,2.8"/>
<path class="st0" d="M573,192.4c-0.2,0-0.4,0-0.6,0"/>
<path class="st0" d="M572.4,175.9c0,0,4,0.1,6.6,2.9"/>
<path class="st0" d="M579.4,166.5c0,0,0.2,5.7,4.7,7.8"/>
<path class="st0" d="M588,158.4c0,0-8.3,0.3-8.6,8.3"/>
<path class="st0" d="M587.6,158.4c0,0,4.9,0.2,7.3,3.8"/>
<path class="st0" d="M598.6,150.6c0,0,0.1,3.9,2.8,6.5"/>
<path class="st0" d="M607.2,142.6c0,0-8.3,0.3-8.6,8.3"/>
<path class="st0" d="M606.9,142.6c0,0,7.1,0.2,8.4,6.5"/>
<path class="st0" d="M624.3,142.3c0,0,0.1,2.5,1.4,4.8"/>
<path class="st0" d="M632.9,134.3c0,0-8.3,0.3-8.6,8.3"/>
<path class="st0" d="M641.2,142.3c0,0-0.1,2.5-1.5,4.8"/>
<path class="st0" d="M632.6,134.3c0,0,8.3,0.3,8.6,8.2"/>
<path class="st0" d="M798.7,322.1c0.5,2.4,2.2,6.9,8.1,7.1"/>
<path class="st0" d="M807.1,312.6c0,0-2.7,0.1-5,1.6"/>
<path class="st0" d="M815.3,320.6c0,0-0.3,8.3-8.6,8.6"/>
<path class="st0" d="M806.7,312.6c0,0,8.3,0.3,8.6,8.2"/>
<path class="st0" d="M746,357.1c1.1,2.1,3.1,4.2,7.1,4.3"/>
<path class="st0" d="M761.7,352.7c0,0-0.3,8.3-8.6,8.6"/>
<path class="st0" d="M753.1,344.7c0,0,0.4,0,0.9,0.1c2.2,0.3,7.5,1.8,7.7,8.1"/>
<path class="st0" d="M720.5,379.4c0.9,2.4,2.9,5.3,7.6,5.5"/>
<path class="st0" d="M736.7,376.3c0,0-0.3,8.3-8.6,8.6"/>
<path class="st0" d="M731.8,369.2c2.3,1,4.7,3,4.9,7.3"/>
<path class="st0" d="M429.3,157.1c0,0-0.2,5-4.1,7.4"/>
<path class="st0" d="M420.7,149.1c0,0,8.3,0.3,8.6,8.2"/>
<path class="st0" d="M693.9,396.5c0.3,2.2,1.8,7.5,8.2,7.7"/>
<path class="st0" d="M710.6,395.5c0,0-0.3,8.3-8.6,8.6"/>
<path class="st0" d="M707.2,389.3c1.7,1.2,3.3,3.2,3.4,6.5"/>
<path class="st0" d="M664.8,413c0,0,0.3,8.3,8.3,8.6"/>
<path class="st0" d="M681.7,413c0,0-0.3,8.3-8.6,8.6"/>
<path class="st0" d="M676.1,405.6c2.4,0.9,5.4,2.9,5.6,7.6"/>
<path class="st0" d="M636.1,425c0,0,0.3,8.3,8.3,8.6"/>
<path class="st0" d="M652.9,424.9c0,0-0.3,8.3-8.6,8.6"/>
<path class="st0" d="M650.4,419.3c1.4,1.2,2.4,3.1,2.5,5.8"/>
<path class="st0" d="M607.4,432.4c0,0,0.3,8.3,8.3,8.6"/>
<path class="st0" d="M608.2,429.3c-0.4,0.9-0.7,2-0.7,3.4"/>
<path class="st0" d="M624.3,432.3c0,0-0.3,8.3-8.6,8.6"/>
<path class="st0" d="M622.4,427.3c1.1,1.2,1.8,2.9,1.9,5.2"/>
<path class="st0" d="M573,431.8c0,0,0.3,8.3,8.3,8.6"/>
<path class="st0" d="M576.4,425.5c-1.7,1.2-3.2,3.2-3.3,6.5"/>
<path class="st0" d="M589.9,431.8c0,0-0.3,8.3-8.6,8.6"/>
<path class="st0" d="M587.4,426.2c1.4,1.2,2.4,3.1,2.5,5.8"/>
<path class="st0" d="M542.4,422.8c0,0,0.3,8.3,8.3,8.6"/>
<path class="st0" d="M546.5,416c-2,1.1-4,3.2-4.1,7"/>
<path class="st0" d="M559.2,422.8c0,0-0.3,8.3-8.6,8.6"/>
<path class="st0" d="M559.1,421.4c0.1,0.5,0.2,1,0.2,1.6"/>
<path class="st0" d="M429.5,418.1c0,0-0.3,8.3-8.6,8.6"/>
<path class="st0" d="M424.4,410.9c2.3,0.9,5,3,5.1,7.4"/>
<path class="st0" d="M426.4,239.7c-1,0.1-4.8,8.6-4.8,9.7s1,3.2,2.3,3.2c1.4,0,6.7-3,7.2-4S427.4,239.5,426.4,239.7z"/>
</svg>
